<svg xmlns="http://www.w3.org/2000/svg" xmlns:xlink="http://www.w3.org/1999/xlink" width="500" zoomAndPan="magnify" viewBox="0 0 375 172.499995" height="230" preserveAspectRatio="xMidYMid meet" version="1.0"><defs><g/><clipPath id="d6c33be9d7"><path d="M 57 83 L 60 83 L 60 86 L 57 86 Z M 57 83 " clip-rule="nonzero"/></clipPath><clipPath id="b037f0c014"><path d="M -30.324219 11.011719 L 105.066406 0.0078125 L 119.394531 176.332031 L -15.996094 187.332031 Z M -30.324219 11.011719 " clip-rule="nonzero"/></clipPath><clipPath id="db437f5d8e"><path d="M -30.324219 11.011719 L 105.066406 0.0078125 L 119.394531 176.332031 L -15.996094 187.332031 Z M -30.324219 11.011719 " clip-rule="nonzero"/></clipPath><clipPath id="3c3cdafab6"><path d="M 58 84 L 60 84 L 60 86 L 58 86 Z M 58 84 " clip-rule="nonzero"/></clipPath><clipPath id="21e661e97e"><path d="M -30.324219 11.011719 L 105.066406 0.0078125 L 119.394531 176.332031 L -15.996094 187.332031 Z M -30.324219 11.011719 " clip-rule="nonzero"/></clipPath><clipPath id="35c9a8a3d3"><path d="M -30.324219 11.011719 L 105.066406 0.0078125 L 119.394531 176.332031 L -15.996094 187.332031 Z M -30.324219 11.011719 " clip-rule="nonzero"/></clipPath><clipPath id="8377087106"><path d="M 66 63 L 113 63 L 113 118 L 66 118 Z M 66 63 " clip-rule="nonzero"/></clipPath><clipPath id="27c36e4193"><path d="M -30.324219 11.011719 L 105.066406 0.0078125 L 119.394531 176.332031 L -15.996094 187.332031 Z M -30.324219 11.011719 " clip-rule="nonzero"/></clipPath><clipPath id="229fa7b956"><path d="M -30.324219 11.011719 L 105.066406 0.0078125 L 119.394531 176.332031 L -15.996094 187.332031 Z M -30.324219 11.011719 " clip-rule="nonzero"/></clipPath><clipPath id="ff40016b7d"><path d="M 62 2 L 75 2 L 75 43 L 62 43 Z M 62 2 " clip-rule="nonzero"/></clipPath><clipPath id="46bf7cd39f"><path d="M -30.324219 11.011719 L 105.066406 0.0078125 L 119.394531 176.332031 L -15.996094 187.332031 Z M -30.324219 11.011719 " clip-rule="nonzero"/></clipPath><clipPath id="b6b5d2fb07"><path d="M -30.324219 11.011719 L 105.066406 0.0078125 L 119.394531 176.332031 L -15.996094 187.332031 Z M -30.324219 11.011719 " clip-rule="nonzero"/></clipPath><clipPath id="223b88cbc3"><path d="M 10 117 L 34 117 L 34 167 L 10 167 Z M 10 117 " clip-rule="nonzero"/></clipPath><clipPath id="6afd58e620"><path d="M -30.324219 11.011719 L 105.066406 0.0078125 L 119.394531 176.332031 L -15.996094 187.332031 Z M -30.324219 11.011719 " clip-rule="nonzero"/></clipPath><clipPath id="0d69d1c79f"><path d="M -30.324219 11.011719 L 105.066406 0.0078125 L 119.394531 176.332031 L -15.996094 187.332031 Z M -30.324219 11.011719 " clip-rule="nonzero"/></clipPath><clipPath id="a076edb6e0"><path d="M 27 34 L 107 34 L 107 169 L 27 169 Z M 27 34 " clip-rule="nonzero"/></clipPath><clipPath id="357c49a0dd"><path d="M -30.324219 11.011719 L 105.066406 0.0078125 L 119.394531 176.332031 L -15.996094 187.332031 Z M -30.324219 11.011719 " clip-rule="nonzero"/></clipPath><clipPath id="7693130bd0"><path d="M -30.324219 11.011719 L 105.066406 0.0078125 L 119.394531 176.332031 L -15.996094 187.332031 Z M -30.324219 11.011719 " clip-rule="nonzero"/></clipPath></defs><g clip-path="url(#d6c33be9d7)"><g clip-path="url(#b037f0c014)"><g clip-path="url(#db437f5d8e)"><path fill="#36c6c9" d="M 58.214844 85.800781 C 58.804688 85.128906 59.398438 84.472656 59.992188 83.828125 C 59.925781 83.753906 59.863281 83.679688 59.800781 83.605469 C 59.257812 84.148438 58.648438 84.777344 57.976562 85.507812 C 57.984375 85.515625 57.992188 85.527344 58 85.535156 L 58.214844 85.800781 " fill-opacity="1" fill-rule="nonzero"/></g></g></g><g clip-path="url(#3c3cdafab6)"><g clip-path="url(#21e661e97e)"><g clip-path="url(#35c9a8a3d3)"><path fill="#36c6c9" d="M 59.578125 84.675781 C 59.488281 84.574219 59.394531 84.472656 59.300781 84.371094 C 58.726562 84.835938 58.417969 85.058594 58.417969 85.058594 C 58.796875 84.953125 59.183594 84.824219 59.578125 84.675781 " fill-opacity="1" fill-rule="nonzero"/></g></g></g><g clip-path="url(#8377087106)"><g clip-path="url(#27c36e4193)"><g clip-path="url(#229fa7b956)"><path fill="#36c6c9" d="M 112.59375 93.851562 L 112.601562 93.699219 L 112.609375 93.394531 C 112.613281 93.292969 112.621094 93.191406 112.621094 93.089844 L 112.617188 92.789062 L 112.609375 92.484375 C 112.609375 92.382812 112.609375 92.28125 112.601562 92.179688 L 112.558594 91.582031 C 112.554688 91.53125 112.554688 91.480469 112.546875 91.429688 L 112.53125 91.28125 L 112.496094 90.984375 C 112.46875 90.785156 112.449219 90.585938 112.414062 90.390625 L 112.3125 89.804688 C 112.296875 89.707031 112.273438 89.613281 112.253906 89.515625 L 112.191406 89.226562 C 112.109375 88.839844 112 88.464844 111.902344 88.089844 L 111.863281 87.945312 L 111.820312 87.808594 L 111.730469 87.53125 C 111.671875 87.347656 111.613281 87.160156 111.550781 86.976562 L 111.351562 86.433594 L 111.253906 86.160156 C 111.21875 86.070312 111.183594 85.984375 111.144531 85.894531 C 111 85.539062 110.859375 85.183594 110.695312 84.839844 L 110.460938 84.320312 C 110.378906 84.148438 110.292969 83.980469 110.207031 83.8125 C 109.53125 82.457031 108.765625 81.171875 107.945312 79.9375 L 107.636719 79.476562 L 107.558594 79.359375 L 107.476562 79.246094 L 107.316406 79.023438 L 106.996094 78.570312 L 106.835938 78.347656 L 106.671875 78.125 C 106.453125 77.832031 106.234375 77.535156 106.011719 77.246094 C 105.785156 76.957031 105.558594 76.671875 105.332031 76.386719 C 104.414062 75.25 103.464844 74.152344 102.492188 73.085938 C 102.246094 72.820312 102 72.5625 101.753906 72.296875 L 101.382812 71.90625 L 101.007812 71.519531 C 100.757812 71.261719 100.507812 71.003906 100.257812 70.75 C 100 70.496094 99.746094 70.246094 99.492188 69.992188 L 99.113281 69.617188 L 98.726562 69.246094 C 98.46875 69 98.210938 68.753906 97.953125 68.507812 C 97.695312 68.265625 97.429688 68.023438 97.171875 67.78125 L 96.78125 67.421875 L 96.582031 67.242188 L 96.386719 67.0625 C 95.191406 65.980469 93.980469 64.929688 92.753906 63.902344 C 92.371094 64.875 91.980469 65.855469 91.585938 66.84375 C 91.921875 67.136719 92.253906 67.433594 92.585938 67.734375 L 93.019531 68.125 L 93.238281 68.320312 L 93.453125 68.515625 C 93.738281 68.78125 94.023438 69.046875 94.3125 69.308594 L 94.527344 69.507812 L 94.738281 69.710938 L 95.164062 70.113281 C 95.445312 70.382812 95.730469 70.648438 96.007812 70.925781 C 98.242188 73.105469 100.398438 75.382812 102.359375 77.8125 C 103.339844 79.027344 104.273438 80.28125 105.125 81.574219 C 105.980469 82.867188 106.757812 84.203125 107.417969 85.582031 C 107.460938 85.667969 107.496094 85.753906 107.535156 85.84375 L 107.652344 86.101562 L 107.769531 86.363281 L 107.828125 86.492188 L 107.882812 86.625 C 108.019531 86.976562 108.171875 87.328125 108.289062 87.683594 L 108.386719 87.949219 C 108.417969 88.035156 108.449219 88.125 108.476562 88.214844 L 108.640625 88.75 L 108.683594 88.882812 L 108.71875 89.019531 L 108.789062 89.289062 L 108.863281 89.558594 L 108.878906 89.625 L 108.894531 89.695312 L 108.921875 89.828125 L 109.039062 90.371094 L 109.128906 90.914062 L 109.152344 91.050781 C 109.15625 91.09375 109.160156 91.140625 109.167969 91.183594 L 109.230469 91.730469 C 109.238281 91.820312 109.242188 91.910156 109.25 92 L 109.265625 92.269531 L 109.273438 92.40625 C 109.277344 92.453125 109.277344 92.496094 109.277344 92.542969 L 109.285156 93.082031 L 109.261719 93.621094 C 109.257812 93.710938 109.246094 93.796875 109.238281 93.886719 L 109.210938 94.152344 C 109.054688 95.570312 108.636719 96.945312 107.941406 98.207031 C 107.597656 98.839844 107.191406 99.449219 106.738281 100.03125 C 106.621094 100.171875 106.511719 100.320312 106.386719 100.460938 L 106.203125 100.671875 C 106.144531 100.742188 106.082031 100.8125 106.019531 100.878906 L 105.632812 101.289062 L 105.230469 101.683594 C 104.683594 102.207031 104.097656 102.703125 103.488281 103.171875 L 103.023438 103.519531 C 102.867188 103.632812 102.703125 103.742188 102.546875 103.851562 C 102.386719 103.96875 102.222656 104.070312 102.058594 104.179688 C 101.898438 104.289062 101.734375 104.394531 101.566406 104.5 C 100.90625 104.917969 100.214844 105.308594 99.515625 105.683594 C 98.816406 106.0625 98.09375 106.40625 97.367188 106.746094 C 96.097656 107.324219 94.800781 107.847656 93.480469 108.328125 C 92.164062 108.808594 90.828125 109.242188 89.480469 109.640625 C 86.78125 110.445312 84.042969 111.101562 81.292969 111.667969 C 77.019531 112.539062 72.71875 113.191406 68.425781 113.691406 C 67.699219 114.824219 66.972656 115.9375 66.238281 117.027344 C 66.613281 116.992188 66.984375 116.957031 67.359375 116.921875 C 68.945312 116.773438 70.539062 116.597656 72.136719 116.398438 C 73.734375 116.203125 75.332031 115.980469 76.929688 115.730469 C 78.535156 115.484375 80.136719 115.207031 81.738281 114.894531 C 83.339844 114.582031 84.945312 114.238281 86.546875 113.847656 C 88.148438 113.460938 89.746094 113.035156 91.339844 112.546875 L 91.9375 112.363281 L 92.53125 112.175781 L 92.832031 112.078125 L 93.128906 111.980469 L 93.722656 111.78125 L 94.316406 111.574219 L 94.613281 111.46875 L 94.90625 111.359375 L 95.5 111.140625 L 96.089844 110.914062 L 96.382812 110.800781 L 96.675781 110.683594 L 97.265625 110.445312 L 97.847656 110.195312 C 97.945312 110.152344 98.042969 110.113281 98.140625 110.070312 L 98.433594 109.9375 C 99.207031 109.597656 99.976562 109.222656 100.742188 108.832031 C 102.265625 108.042969 103.757812 107.152344 105.175781 106.109375 C 105.351562 105.976562 105.53125 105.847656 105.703125 105.710938 L 106.222656 105.292969 C 106.566406 105.007812 106.90625 104.722656 107.234375 104.414062 C 107.894531 103.808594 108.523438 103.15625 109.109375 102.449219 C 109.6875 101.742188 110.222656 100.984375 110.6875 100.171875 C 111.152344 99.363281 111.546875 98.503906 111.855469 97.605469 C 111.917969 97.410156 111.984375 97.21875 112.042969 97.023438 L 112.203125 96.425781 C 112.214844 96.375 112.230469 96.328125 112.242188 96.277344 L 112.273438 96.125 L 112.398438 95.523438 L 112.445312 95.21875 L 112.488281 94.917969 C 112.503906 94.816406 112.519531 94.714844 112.527344 94.613281 L 112.582031 94.003906 C 112.589844 93.953125 112.59375 93.902344 112.59375 93.851562 " fill-opacity="1" fill-rule="nonzero"/></g></g></g><g clip-path="url(#ff40016b7d)"><g clip-path="url(#46bf7cd39f)"><g clip-path="url(#b6b5d2fb07)"><path fill="#36c6c9" d="M 71.519531 40.265625 C 70.015625 38.175781 68.628906 36.027344 67.421875 33.804688 C 66.816406 32.695312 66.261719 31.566406 65.761719 30.417969 C 65.261719 29.273438 64.816406 28.109375 64.449219 26.929688 C 63.71875 24.570312 63.28125 22.136719 63.292969 19.71875 C 63.300781 18.511719 63.425781 17.3125 63.671875 16.140625 C 63.917969 14.96875 64.289062 13.824219 64.769531 12.734375 C 65.253906 11.640625 65.851562 10.601562 66.539062 9.628906 C 67.226562 8.652344 68.003906 7.742188 68.84375 6.894531 C 69.679688 6.046875 70.578125 5.261719 71.515625 4.527344 C 71.753906 4.347656 71.988281 4.167969 72.226562 3.988281 C 72.46875 3.816406 72.710938 3.644531 72.953125 3.472656 C 73.195312 3.300781 73.445312 3.140625 73.691406 2.976562 C 73.941406 2.816406 74.183594 2.648438 74.4375 2.496094 C 73.300781 3.128906 72.183594 3.816406 71.109375 4.585938 C 70.035156 5.351562 69.003906 6.199219 68.042969 7.132812 C 67.808594 7.371094 67.574219 7.613281 67.339844 7.851562 C 67.113281 8.101562 66.890625 8.351562 66.664062 8.605469 C 66.558594 8.734375 66.453125 8.867188 66.34375 8.996094 L 66.183594 9.195312 C 66.128906 9.261719 66.074219 9.324219 66.027344 9.394531 C 65.925781 9.53125 65.824219 9.667969 65.722656 9.804688 L 65.570312 10.007812 C 65.519531 10.074219 65.476562 10.148438 65.429688 10.21875 C 64.65625 11.339844 63.996094 12.554688 63.484375 13.839844 C 62.972656 15.128906 62.621094 16.488281 62.414062 17.878906 C 62.398438 17.96875 62.390625 18.054688 62.378906 18.140625 L 62.316406 18.664062 L 62.292969 18.929688 C 62.269531 19.28125 62.234375 19.632812 62.230469 19.984375 C 62.226562 20.164062 62.21875 20.339844 62.214844 20.515625 C 62.214844 20.695312 62.21875 20.871094 62.21875 21.046875 L 62.222656 21.3125 C 62.222656 21.402344 62.230469 21.492188 62.234375 21.578125 C 62.242188 21.757812 62.25 21.933594 62.257812 22.113281 C 62.347656 23.53125 62.578125 24.945312 62.902344 26.34375 C 62.9375 26.519531 62.984375 26.691406 63.027344 26.867188 C 63.074219 27.039062 63.117188 27.214844 63.164062 27.390625 C 63.210938 27.5625 63.261719 27.734375 63.3125 27.90625 C 63.359375 28.082031 63.410156 28.253906 63.464844 28.425781 C 63.574219 28.765625 63.679688 29.113281 63.800781 29.453125 C 63.859375 29.625 63.917969 29.792969 63.976562 29.964844 C 64.039062 30.132812 64.101562 30.304688 64.167969 30.472656 C 65.179688 33.183594 66.507812 35.789062 68.007812 38.3125 C 68.785156 39.613281 69.613281 40.894531 70.480469 42.152344 C 70.871094 41.582031 71.261719 41.015625 71.65625 40.457031 C 71.613281 40.394531 71.566406 40.328125 71.519531 40.265625 " fill-opacity="1" fill-rule="nonzero"/></g></g></g><g clip-path="url(#223b88cbc3)"><g clip-path="url(#6afd58e620)"><g clip-path="url(#0d69d1c79f)"><path fill="#36c6c9" d="M 33.433594 117.457031 C 33.09375 117.507812 32.753906 117.570312 32.414062 117.625 C 31.058594 117.859375 29.710938 118.132812 28.375 118.457031 C 27.039062 118.78125 25.71875 119.160156 24.414062 119.605469 C 24.089844 119.710938 23.765625 119.832031 23.441406 119.953125 L 23.199219 120.042969 L 22.960938 120.136719 L 22.480469 120.324219 C 22.320312 120.386719 22.160156 120.460938 22.003906 120.527344 L 21.527344 120.730469 L 21.058594 120.945312 C 20.898438 121.015625 20.742188 121.089844 20.589844 121.167969 L 20.125 121.398438 C 19.96875 121.472656 19.816406 121.558594 19.664062 121.636719 L 19.4375 121.761719 L 19.320312 121.820312 L 19.207031 121.886719 L 18.757812 122.144531 C 18.160156 122.496094 17.574219 122.867188 17.011719 123.277344 L 16.796875 123.425781 C 16.726562 123.476562 16.660156 123.53125 16.589844 123.585938 C 16.449219 123.691406 16.3125 123.796875 16.175781 123.902344 L 15.769531 124.238281 L 15.671875 124.320312 L 15.570312 124.40625 L 15.375 124.582031 C 14.855469 125.046875 14.355469 125.539062 13.898438 126.070312 C 13.4375 126.601562 13.007812 127.160156 12.621094 127.746094 C 12.234375 128.332031 11.894531 128.949219 11.597656 129.582031 C 11.007812 130.851562 10.609375 132.199219 10.40625 133.558594 C 10.199219 134.917969 10.164062 136.28125 10.269531 137.617188 C 10.375 138.953125 10.605469 140.265625 10.925781 141.535156 C 11.566406 144.078125 12.542969 146.476562 13.675781 148.753906 C 14.808594 151.027344 16.105469 153.183594 17.492188 155.242188 C 18.878906 157.304688 20.355469 159.269531 21.894531 161.15625 C 23.4375 163.042969 25.035156 164.851562 26.699219 166.566406 C 24.972656 164.585938 23.324219 162.5 21.75 160.332031 C 20.179688 158.160156 18.6875 155.898438 17.316406 153.535156 C 15.953125 151.171875 14.710938 148.707031 13.722656 146.121094 C 13.230469 144.828125 12.796875 143.507812 12.46875 142.164062 C 12.136719 140.816406 11.898438 139.445312 11.804688 138.0625 C 11.710938 136.683594 11.761719 135.296875 12.011719 133.941406 C 12.257812 132.59375 12.703125 131.285156 13.351562 130.082031 C 14 128.875 14.855469 127.78125 15.851562 126.820312 C 16.347656 126.339844 16.882812 125.890625 17.441406 125.46875 C 18.003906 125.054688 18.59375 124.667969 19.203125 124.308594 L 19.664062 124.046875 C 19.820312 123.960938 19.976562 123.878906 20.132812 123.796875 C 20.210938 123.753906 20.289062 123.710938 20.371094 123.671875 L 20.609375 123.550781 L 20.847656 123.433594 C 20.929688 123.394531 21.007812 123.355469 21.089844 123.320312 L 21.578125 123.09375 C 21.660156 123.058594 21.742188 123.023438 21.824219 122.988281 L 22.070312 122.882812 C 22.398438 122.738281 22.738281 122.609375 23.070312 122.480469 C 24.417969 121.964844 25.8125 121.539062 27.230469 121.175781 C 28.648438 120.816406 30.09375 120.519531 31.558594 120.28125 C 32.207031 120.171875 32.855469 120.074219 33.507812 119.988281 C 33.496094 119.148438 33.5 118.300781 33.511719 117.445312 C 33.484375 117.449219 33.457031 117.453125 33.433594 117.457031 " fill-opacity="1" fill-rule="nonzero"/></g></g></g><g clip-path="url(#a076edb6e0)"><g clip-path="url(#357c49a0dd)"><g clip-path="url(#7693130bd0)"><path fill="#36c6c9" d="M 83.964844 79.570312 C 83.964844 79.570312 74.707031 87.773438 64.148438 82.304688 C 64.148438 82.304688 76.140625 81.4375 83.964844 79.570312 Z M 75.921875 95.984375 C 75.703125 96.132812 75.378906 96.339844 74.972656 96.585938 C 74.5625 96.835938 74.066406 97.121094 73.496094 97.425781 C 73.351562 97.503906 73.207031 97.578125 73.054688 97.660156 C 72.90625 97.738281 72.753906 97.820312 72.597656 97.898438 C 72.28125 98.0625 71.949219 98.226562 71.605469 98.386719 C 70.914062 98.710938 70.164062 99.027344 69.371094 99.320312 C 69.269531 99.355469 69.171875 99.390625 69.070312 99.425781 C 68.972656 99.460938 68.871094 99.496094 68.773438 99.53125 C 68.570312 99.601562 68.367188 99.667969 68.160156 99.734375 C 67.75 99.867188 67.332031 99.984375 66.902344 100.089844 C 66.050781 100.300781 65.167969 100.457031 64.273438 100.53125 C 63.378906 100.605469 62.472656 100.597656 61.578125 100.480469 C 61.730469 100.421875 61.882812 100.363281 62.035156 100.308594 L 62.496094 100.140625 L 63.417969 99.808594 C 64.03125 99.589844 64.644531 99.375 65.253906 99.160156 C 65.867188 98.949219 66.476562 98.734375 67.085938 98.527344 C 67.703125 98.324219 68.316406 98.125 68.929688 97.929688 C 69.542969 97.730469 70.152344 97.535156 70.761719 97.347656 L 71.675781 97.0625 C 71.828125 97.011719 71.984375 96.96875 72.136719 96.925781 L 72.597656 96.789062 C 73.824219 96.429688 75.042969 96.085938 76.257812 95.753906 C 76.257812 95.753906 76.140625 95.835938 75.921875 95.984375 Z M 32.230469 161.894531 C 32.066406 162.25 31.652344 162.480469 31.226562 162.464844 C 30.519531 162.433594 30.082031 161.8125 30.355469 161.230469 C 30.523438 160.878906 30.9375 160.644531 31.363281 160.664062 C 32.070312 160.691406 32.507812 161.316406 32.230469 161.894531 Z M 106.324219 36.472656 C 106.296875 36.378906 106.238281 36.292969 106.15625 36.214844 C 106.074219 36.140625 105.96875 36.070312 105.835938 36.027344 C 105.058594 35.75 104.257812 35.519531 103.4375 35.332031 L 103.28125 35.296875 C 103.230469 35.285156 103.175781 35.277344 103.121094 35.265625 L 102.796875 35.203125 L 102.472656 35.144531 C 102.417969 35.132812 102.363281 35.125 102.3125 35.113281 L 102.152344 35.089844 C 101.941406 35.054688 101.726562 35.019531 101.511719 34.988281 C 101.300781 34.957031 101.089844 34.929688 100.878906 34.902344 C 99.191406 34.691406 97.535156 34.613281 95.894531 34.652344 C 94.257812 34.691406 92.644531 34.847656 91.050781 35.09375 C 90.65625 35.15625 90.257812 35.222656 89.859375 35.292969 C 89.46875 35.371094 89.078125 35.449219 88.6875 35.53125 C 88.289062 35.613281 87.910156 35.710938 87.523438 35.804688 L 86.941406 35.949219 L 86.652344 36.023438 L 86.367188 36.105469 C 86.367188 36.105469 86.203125 36.144531 85.894531 36.242188 C 85.742188 36.289062 85.550781 36.351562 85.328125 36.429688 C 85.214844 36.46875 85.09375 36.511719 84.964844 36.558594 C 84.839844 36.609375 84.707031 36.664062 84.566406 36.722656 C 84.003906 36.960938 83.3125 37.269531 82.5625 37.695312 C 82.371094 37.800781 82.175781 37.910156 81.976562 38.027344 C 81.875 38.085938 81.773438 38.144531 81.671875 38.207031 C 81.570312 38.273438 81.46875 38.335938 81.367188 38.402344 C 80.957031 38.667969 80.53125 38.960938 80.085938 39.28125 C 79.65625 39.605469 79.210938 39.960938 78.753906 40.34375 C 78.523438 40.535156 78.304688 40.738281 78.082031 40.949219 C 77.855469 41.15625 77.628906 41.375 77.402344 41.601562 C 77.289062 41.710938 77.175781 41.828125 77.058594 41.941406 C 76.949219 42.0625 76.839844 42.179688 76.726562 42.300781 C 76.503906 42.542969 76.285156 42.796875 76.0625 43.054688 C 75.949219 43.183594 75.839844 43.316406 75.726562 43.449219 C 75.699219 43.480469 75.671875 43.515625 75.644531 43.550781 C 75.617188 43.582031 75.589844 43.617188 75.5625 43.652344 C 75.511719 43.71875 75.457031 43.789062 75.402344 43.859375 C 75.191406 44.136719 74.976562 44.421875 74.765625 44.714844 C 74.335938 45.296875 73.945312 45.921875 73.550781 46.578125 C 73.453125 46.742188 73.355469 46.90625 73.261719 47.074219 C 73.214844 47.160156 73.164062 47.242188 73.117188 47.328125 C 73.074219 47.414062 73.027344 47.5 72.980469 47.585938 C 72.800781 47.929688 72.625 48.285156 72.449219 48.644531 C 72.363281 48.824219 72.277344 49.007812 72.191406 49.191406 C 72.152344 49.285156 72.105469 49.375 72.066406 49.46875 C 72.027344 49.566406 71.988281 49.660156 71.949219 49.753906 C 71.792969 50.132812 71.640625 50.519531 71.496094 50.914062 C 71.421875 51.113281 71.347656 51.308594 71.277344 51.511719 C 71.242188 51.613281 71.207031 51.710938 71.175781 51.816406 C 71.144531 51.917969 71.113281 52.019531 71.078125 52.121094 C 70.953125 52.535156 70.832031 52.953125 70.714844 53.378906 C 70.714844 53.378906 70.644531 53.242188 70.59375 52.882812 C 70.566406 52.703125 70.546875 52.46875 70.542969 52.167969 C 70.542969 52.015625 70.546875 51.847656 70.558594 51.660156 C 70.5625 51.570312 70.570312 51.472656 70.578125 51.371094 C 70.582031 51.320312 70.585938 51.265625 70.589844 51.214844 C 70.597656 51.160156 70.605469 51.105469 70.609375 51.050781 C 70.667969 50.609375 70.761719 50.085938 70.902344 49.476562 C 70.972656 49.167969 71.054688 48.839844 71.152344 48.488281 C 71.257812 48.140625 71.378906 47.765625 71.515625 47.367188 C 71.65625 46.964844 71.8125 46.539062 71.988281 46.089844 C 72.175781 45.640625 72.386719 45.164062 72.617188 44.65625 C 72.734375 44.40625 72.859375 44.144531 72.988281 43.878906 C 73.121094 43.613281 73.265625 43.339844 73.414062 43.0625 C 73.566406 42.78125 73.722656 42.496094 73.886719 42.199219 C 73.96875 42.050781 74.050781 41.902344 74.140625 41.75 C 74.230469 41.601562 74.324219 41.449219 74.417969 41.292969 L 74.035156 41.519531 C 73.972656 41.558594 73.914062 41.597656 73.851562 41.632812 L 73.667969 41.75 L 72.929688 42.214844 L 72.195312 42.6875 C 72.074219 42.769531 71.953125 42.847656 71.835938 42.929688 L 70.769531 43.667969 L 70.417969 43.917969 L 70.238281 44.042969 C 70.179688 44.082031 70.121094 44.125 70.0625 44.167969 C 69.609375 44.507812 69.152344 44.851562 68.695312 45.199219 L 68.355469 45.457031 L 68.1875 45.589844 L 68.023438 45.722656 L 67.367188 46.257812 L 66.710938 46.796875 C 66.492188 46.976562 66.269531 47.15625 66.066406 47.339844 C 65.644531 47.710938 65.226562 48.082031 64.808594 48.453125 L 64.339844 48.875 L 64.191406 49.019531 L 63.589844 49.589844 C 60.378906 52.652344 57.546875 55.933594 55.050781 59.316406 C 54.996094 59.386719 54.949219 59.457031 54.898438 59.527344 L 54.75 59.738281 C 54.652344 59.878906 54.558594 60.019531 54.460938 60.164062 C 54.273438 60.449219 54.089844 60.738281 53.914062 61.03125 C 53.734375 61.320312 53.566406 61.617188 53.398438 61.914062 C 53.359375 61.988281 53.320312 62.0625 53.28125 62.136719 L 53.167969 62.363281 C 53.09375 62.511719 53.019531 62.664062 52.945312 62.816406 C 52.65625 63.421875 52.394531 64.039062 52.160156 64.65625 L 52.070312 64.890625 C 52.042969 64.96875 52.019531 65.046875 51.992188 65.125 C 51.9375 65.28125 51.886719 65.4375 51.839844 65.59375 C 51.742188 65.910156 51.652344 66.226562 51.566406 66.542969 C 51.484375 66.859375 51.40625 67.175781 51.335938 67.492188 C 51.300781 67.652344 51.265625 67.8125 51.234375 67.96875 C 51.21875 68.050781 51.203125 68.128906 51.191406 68.210938 L 51.152344 68.449219 C 51.050781 69.085938 50.980469 69.726562 50.9375 70.363281 C 50.914062 70.683594 50.898438 71.003906 50.894531 71.320312 C 50.890625 71.480469 50.886719 71.640625 50.886719 71.796875 C 50.886719 71.957031 50.894531 72.117188 50.898438 72.273438 C 50.925781 72.910156 50.980469 73.542969 51.0625 74.167969 C 51.113281 74.546875 51.167969 74.917969 51.230469 75.28125 C 51.257812 75.464844 51.289062 75.644531 51.324219 75.820312 C 51.332031 75.863281 51.339844 75.90625 51.347656 75.949219 C 51.355469 75.992188 51.363281 76.039062 51.375 76.082031 C 51.390625 76.167969 51.410156 76.253906 51.429688 76.339844 C 51.578125 77.023438 51.742188 77.660156 51.929688 78.230469 C 52.296875 79.375 52.742188 80.257812 53.265625 80.746094 C 53.265625 80.746094 53.125 80.699219 52.855469 80.496094 C 52.585938 80.292969 52.1875 79.9375 51.679688 79.316406 C 51.175781 78.695312 50.5625 77.804688 49.863281 76.53125 C 49.6875 76.210938 49.507812 75.867188 49.324219 75.496094 C 49.140625 75.125 48.945312 74.726562 48.761719 74.304688 C 48.386719 73.453125 48 72.484375 47.601562 71.386719 C 44.894531 76.648438 42.765625 81.9375 41.082031 87.078125 C 39.398438 92.222656 38.160156 97.230469 37.230469 101.976562 C 37.148438 102.375 37.082031 102.773438 37.023438 103.175781 C 36.96875 103.574219 36.914062 103.976562 36.886719 104.378906 C 36.824219 105.183594 36.800781 105.988281 36.820312 106.789062 C 36.832031 107.1875 36.851562 107.589844 36.882812 107.988281 C 36.898438 108.1875 36.914062 108.386719 36.933594 108.585938 C 36.945312 108.683594 36.957031 108.78125 36.96875 108.882812 L 37.007812 109.179688 C 37.121094 109.972656 37.277344 110.753906 37.472656 111.53125 C 37.625 112.136719 37.789062 112.726562 37.957031 113.285156 C 38.042969 113.566406 38.128906 113.835938 38.214844 114.097656 C 38.304688 114.359375 38.402344 114.613281 38.496094 114.851562 C 38.871094 115.816406 39.273438 116.589844 39.6875 117.070312 C 39.6875 117.070312 39.242188 116.621094 38.507812 115.769531 C 38.140625 115.34375 37.703125 114.8125 37.214844 114.183594 C 37.09375 114.027344 36.96875 113.863281 36.839844 113.695312 C 36.714844 113.527344 36.585938 113.351562 36.453125 113.171875 C 36.191406 112.808594 35.917969 112.421875 35.640625 112.011719 C 35.480469 113.246094 35.363281 114.449219 35.25 115.628906 C 35.191406 116.214844 35.136719 116.796875 35.085938 117.367188 C 35.0625 117.65625 35.039062 117.9375 35.011719 118.222656 C 34.992188 118.503906 34.972656 118.785156 34.953125 119.0625 C 34.878906 120.179688 34.808594 121.261719 34.75 122.308594 C 34.738281 122.570312 34.722656 122.832031 34.710938 123.089844 C 34.707031 123.152344 34.703125 123.21875 34.699219 123.28125 C 34.695312 123.347656 34.695312 123.410156 34.691406 123.472656 C 34.6875 123.601562 34.683594 123.730469 34.679688 123.855469 C 34.660156 124.363281 34.644531 124.863281 34.628906 125.351562 C 34.597656 126.328125 34.578125 127.273438 34.558594 128.175781 C 34.558594 128.289062 34.554688 128.402344 34.554688 128.511719 C 34.554688 128.625 34.554688 128.734375 34.550781 128.847656 C 34.550781 129.066406 34.550781 129.285156 34.550781 129.503906 C 34.554688 129.9375 34.554688 130.359375 34.554688 130.769531 C 34.558594 131.597656 34.570312 132.382812 34.582031 133.125 C 34.585938 133.3125 34.585938 133.492188 34.589844 133.675781 C 34.59375 133.855469 34.597656 134.03125 34.605469 134.207031 C 34.617188 134.558594 34.628906 134.898438 34.640625 135.226562 C 34.644531 135.28125 34.636719 135.335938 34.625 135.390625 L 34.027344 137.832031 L 33.65625 139.355469 L 33.445312 140.269531 L 32.882812 142.714844 L 32.460938 144.542969 L 32.390625 144.851562 L 32.324219 145.15625 L 31.730469 147.886719 L 31.78125 147.898438 C 31.703125 148.246094 31.625 148.597656 31.546875 148.949219 C 31.289062 150.109375 31.050781 151.261719 30.824219 152.394531 C 30.769531 152.675781 30.714844 152.960938 30.660156 153.242188 C 30.609375 153.523438 30.554688 153.804688 30.503906 154.082031 C 30.40625 154.640625 30.308594 155.195312 30.214844 155.746094 C 30.136719 156.191406 30.066406 156.632812 29.996094 157.074219 L 27.804688 167.910156 C 27.757812 168.152344 28.117188 168.269531 28.265625 168.058594 C 29.945312 165.667969 33.59375 162.542969 34.625 161.675781 C 34.746094 161.574219 34.703125 161.402344 34.546875 161.355469 C 33.496094 161.039062 32.640625 160.4375 31.964844 159.777344 C 32.777344 155.914062 33.597656 152.191406 34.417969 148.601562 L 34.445312 148.609375 L 35.019531 146.070312 C 35.160156 145.429688 35.316406 144.792969 35.46875 144.152344 L 35.921875 142.238281 L 36.378906 140.324219 C 36.453125 140.003906 36.535156 139.6875 36.617188 139.367188 L 36.855469 138.414062 L 37.335938 136.503906 L 37.578125 135.546875 L 37.699219 135.070312 L 37.757812 134.828125 L 37.820312 134.589844 L 38.835938 130.777344 L 39.085938 129.824219 L 39.351562 128.875 L 39.886719 126.972656 L 40.417969 125.070312 C 40.460938 124.914062 40.511719 124.753906 40.558594 124.597656 L 40.695312 124.121094 L 40.976562 123.175781 L 41.535156 121.277344 L 41.816406 120.328125 C 41.914062 120.011719 42.011719 119.699219 42.109375 119.382812 L 43.289062 115.601562 L 44.523438 111.832031 C 46.207031 106.8125 48.023438 101.824219 50.023438 96.882812 C 50.507812 95.644531 51.042969 94.417969 51.558594 93.1875 L 51.945312 92.261719 L 51.996094 92.148438 L 52.046875 92.03125 L 52.148438 91.804688 L 52.351562 91.34375 L 53.164062 89.511719 L 53.367188 89.050781 C 53.4375 88.898438 53.503906 88.746094 53.574219 88.59375 L 54 87.679688 L 54.851562 85.859375 L 54.957031 85.628906 L 55.285156 84.949219 L 56.398438 82.683594 L 56.507812 82.457031 C 56.542969 82.382812 56.585938 82.308594 56.621094 82.230469 L 57.550781 80.433594 L 58.011719 79.535156 C 58.171875 79.234375 58.335938 78.9375 58.496094 78.640625 L 59.460938 76.855469 L 59.582031 76.632812 L 59.707031 76.410156 L 59.960938 75.96875 L 60.464844 75.082031 L 60.96875 74.199219 L 61.09375 73.976562 C 61.136719 73.902344 61.183594 73.832031 61.222656 73.757812 L 61.488281 73.320312 L 62.539062 71.566406 C 62.582031 71.492188 62.625 71.417969 62.667969 71.347656 L 62.804688 71.128906 L 63.082031 70.695312 L 64.175781 68.960938 L 64.742188 68.101562 L 65.3125 67.242188 L 65.597656 66.816406 C 65.648438 66.742188 65.691406 66.671875 65.742188 66.601562 L 65.890625 66.390625 L 67.074219 64.695312 L 67.222656 64.480469 C 67.273438 64.410156 67.328125 64.339844 67.375 64.273438 L 67.683594 63.851562 L 68.609375 62.597656 L 68.761719 62.390625 C 68.816406 62.320312 68.871094 62.253906 68.925781 62.183594 L 69.5625 61.359375 C 71.273438 59.160156 73.089844 57.015625 75.042969 54.957031 L 74.917969 55.09375 C 74.871094 55.140625 74.828125 55.183594 74.789062 55.230469 L 74.539062 55.511719 L 74.046875 56.074219 L 73.550781 56.636719 L 73.425781 56.773438 L 73.363281 56.847656 L 73.304688 56.917969 L 72.113281 58.34375 L 71.875 58.632812 L 71.644531 58.921875 L 71.1875 59.5 L 70.730469 60.082031 L 70.5 60.371094 C 70.460938 60.417969 70.421875 60.46875 70.386719 60.515625 L 70.277344 60.664062 L 69.394531 61.84375 L 68.957031 62.433594 C 68.808594 62.628906 68.671875 62.828125 68.53125 63.027344 L 67.683594 64.222656 C 65.453125 67.417969 63.429688 70.703125 61.558594 74.042969 C 59.6875 77.382812 57.976562 80.78125 56.375 84.207031 L 55.777344 85.492188 L 55.625 85.8125 L 55.484375 86.136719 L 55.195312 86.785156 L 54.625 88.078125 L 54.335938 88.722656 L 54.195312 89.046875 L 54.058594 89.371094 L 52.964844 91.972656 L 52.828125 92.296875 L 52.757812 92.460938 L 52.691406 92.625 L 52.433594 93.277344 L 51.910156 94.585938 L 51.386719 95.890625 C 51.34375 96 51.304688 96.109375 51.261719 96.21875 L 50.886719 97.203125 C 50.558594 98.082031 50.222656 98.957031 49.894531 99.832031 L 48.945312 102.46875 L 48.710938 103.128906 C 48.632812 103.347656 48.550781 103.566406 48.476562 103.789062 L 48.023438 105.113281 L 47.574219 106.4375 L 47.234375 107.429688 L 47.125 107.757812 L 46.265625 110.417969 L 45.835938 111.746094 L 45.429688 113.078125 L 44.613281 115.742188 L 44.511719 116.078125 C 44.476562 116.1875 44.445312 116.300781 44.414062 116.410156 L 44.21875 117.078125 L 43.832031 118.417969 L 43.445312 119.753906 C 43.316406 120.199219 43.183594 120.640625 43.0625 121.089844 L 41.960938 125.109375 C 41.898438 125.332031 41.84375 125.558594 41.785156 125.78125 L 41.609375 126.453125 L 40.914062 129.140625 L 40.738281 129.8125 L 40.652344 130.148438 L 40.570312 130.484375 L 40.238281 131.832031 L 39.578125 134.523438 L 39.414062 135.195312 L 39.257812 135.871094 L 38.949219 137.21875 C 38.816406 137.792969 39.519531 138.210938 39.976562 137.832031 C 40.683594 137.25 41.375 136.671875 42.054688 136.097656 C 42.394531 135.808594 42.738281 135.523438 43.078125 135.238281 C 43.414062 134.953125 43.75 134.667969 44.085938 134.386719 C 44.75 133.820312 45.40625 133.257812 46.050781 132.695312 C 46.371094 132.417969 46.6875 132.136719 47.007812 131.859375 C 47.324219 131.582031 47.644531 131.304688 47.960938 131.03125 C 48.589844 130.480469 49.207031 129.933594 49.816406 129.386719 C 50.121094 129.113281 50.421875 128.84375 50.71875 128.570312 C 51.019531 128.300781 51.3125 128.027344 51.609375 127.761719 C 52.800781 126.6875 53.945312 125.628906 55.050781 124.578125 C 59.496094 120.390625 63.382812 116.421875 66.785156 112.644531 C 65.644531 112.90625 64.605469 113.125 63.65625 113.308594 C 62.710938 113.496094 61.863281 113.644531 61.09375 113.761719 C 59.5625 113.996094 58.367188 114.101562 57.460938 114.132812 C 56.550781 114.164062 55.925781 114.121094 55.53125 114.070312 C 55.132812 114.019531 54.964844 113.960938 54.964844 113.960938 C 56.777344 114.292969 58.746094 113.914062 60.679688 113.179688 C 60.921875 113.085938 61.164062 112.988281 61.402344 112.886719 C 61.523438 112.835938 61.644531 112.785156 61.761719 112.730469 C 61.882812 112.675781 62.003906 112.621094 62.125 112.566406 C 62.605469 112.34375 63.085938 112.109375 63.554688 111.855469 C 64.492188 111.355469 65.402344 110.808594 66.253906 110.25 C 66.46875 110.109375 66.683594 109.96875 66.894531 109.832031 C 67.101562 109.695312 67.308594 109.554688 67.511719 109.417969 C 67.914062 109.140625 68.300781 108.867188 68.671875 108.601562 C 69.039062 108.335938 69.390625 108.074219 69.71875 107.824219 C 70.046875 107.574219 70.355469 107.339844 70.644531 107.121094 C 71.789062 106.242188 72.539062 105.609375 72.707031 105.5 C 72.726562 105.492188 72.75 105.492188 72.769531 105.507812 C 72.792969 105.523438 72.828125 105.519531 72.84375 105.5 C 75.703125 101.902344 78.113281 98.492188 80.15625 95.234375 C 82.199219 91.972656 83.878906 88.871094 85.277344 85.886719 C 85.363281 85.699219 85.449219 85.511719 85.535156 85.324219 C 85.621094 85.140625 85.707031 84.957031 85.789062 84.777344 C 85.957031 84.410156 86.121094 84.042969 86.277344 83.671875 C 86.316406 83.582031 86.355469 83.488281 86.394531 83.394531 L 86.449219 83.257812 L 86.511719 83.125 C 86.589844 82.945312 86.664062 82.765625 86.742188 82.582031 C 86.894531 82.222656 87.039062 81.863281 87.183594 81.5 C 87.214844 81.410156 87.25 81.320312 87.285156 81.230469 C 87.320312 81.140625 87.359375 81.050781 87.394531 80.964844 C 87.464844 80.789062 87.535156 80.609375 87.601562 80.433594 C 87.738281 80.082031 87.871094 79.722656 88 79.367188 C 88.03125 79.277344 88.0625 79.191406 88.097656 79.105469 C 88.128906 79.019531 88.160156 78.929688 88.191406 78.84375 C 88.257812 78.671875 88.320312 78.496094 88.382812 78.320312 C 88.445312 78.148438 88.503906 77.972656 88.5625 77.796875 C 88.59375 77.710938 88.625 77.621094 88.652344 77.535156 C 88.683594 77.445312 88.710938 77.355469 88.742188 77.273438 C 89.683594 74.507812 90.445312 71.832031 91.132812 69.210938 C 90.757812 69.28125 90.386719 69.347656 90.027344 69.410156 C 89.664062 69.488281 89.3125 69.5625 88.964844 69.636719 C 88.789062 69.671875 88.617188 69.710938 88.445312 69.746094 C 88.359375 69.765625 88.273438 69.78125 88.1875 69.800781 C 88.144531 69.808594 88.101562 69.816406 88.0625 69.828125 C 88.019531 69.835938 87.976562 69.847656 87.933594 69.855469 C 87.597656 69.933594 87.269531 70.011719 86.945312 70.089844 C 86.621094 70.164062 86.300781 70.238281 85.992188 70.3125 C 85.953125 70.320312 85.914062 70.328125 85.875 70.335938 C 85.835938 70.347656 85.796875 70.359375 85.761719 70.367188 C 85.683594 70.386719 85.609375 70.40625 85.535156 70.425781 C 85.382812 70.464844 85.230469 70.503906 85.082031 70.539062 C 84.785156 70.617188 84.496094 70.6875 84.210938 70.757812 C 84.070312 70.792969 83.929688 70.828125 83.789062 70.863281 C 83.71875 70.882812 83.648438 70.898438 83.582031 70.914062 C 83.511719 70.933594 83.445312 70.953125 83.378906 70.96875 C 82.839844 71.113281 82.324219 71.246094 81.835938 71.371094 C 81.589844 71.433594 81.347656 71.492188 81.117188 71.550781 C 81 71.578125 80.886719 71.613281 80.777344 71.640625 C 80.664062 71.671875 80.550781 71.699219 80.445312 71.726562 C 80.007812 71.839844 79.597656 71.945312 79.210938 72.039062 C 79.015625 72.085938 78.828125 72.128906 78.644531 72.175781 C 78.554688 72.195312 78.464844 72.214844 78.378906 72.234375 C 78.289062 72.253906 78.203125 72.273438 78.117188 72.296875 C 76.777344 72.621094 75.808594 72.789062 75.179688 72.875 C 75.101562 72.886719 75.027344 72.894531 74.960938 72.902344 C 74.894531 72.914062 74.832031 72.921875 74.773438 72.925781 C 74.660156 72.941406 74.566406 72.949219 74.492188 72.957031 C 74.34375 72.96875 74.273438 72.96875 74.273438 72.96875 C 74.394531 72.941406 74.519531 72.914062 74.644531 72.882812 C 74.707031 72.863281 74.769531 72.847656 74.835938 72.832031 C 74.898438 72.8125 74.964844 72.796875 75.027344 72.777344 C 75.289062 72.707031 75.554688 72.621094 75.824219 72.527344 C 76.363281 72.339844 76.921875 72.109375 77.488281 71.84375 C 77.558594 71.808594 77.628906 71.777344 77.703125 71.746094 C 77.773438 71.714844 77.847656 71.679688 77.921875 71.648438 C 78.066406 71.578125 78.210938 71.511719 78.359375 71.4375 C 78.652344 71.296875 78.949219 71.148438 79.242188 70.992188 C 79.832031 70.675781 80.445312 70.359375 81.054688 70.019531 C 81.203125 69.933594 81.355469 69.847656 81.507812 69.757812 C 81.582031 69.714844 81.660156 69.671875 81.734375 69.628906 L 81.847656 69.5625 L 81.964844 69.5 C 82.273438 69.328125 82.582031 69.15625 82.886719 68.976562 C 83.039062 68.890625 83.191406 68.800781 83.34375 68.710938 L 83.683594 68.511719 C 83.722656 68.488281 83.761719 68.46875 83.800781 68.445312 C 84.105469 68.273438 84.410156 68.097656 84.710938 67.925781 C 84.863281 67.835938 85.011719 67.75 85.160156 67.660156 C 85.234375 67.617188 85.308594 67.574219 85.382812 67.53125 C 85.457031 67.484375 85.53125 67.445312 85.609375 67.402344 C 85.910156 67.234375 86.203125 67.066406 86.496094 66.902344 C 86.640625 66.816406 86.785156 66.734375 86.925781 66.652344 L 87.03125 66.589844 L 87.140625 66.527344 C 87.214844 66.488281 87.285156 66.449219 87.355469 66.410156 C 87.640625 66.253906 87.921875 66.097656 88.195312 65.945312 C 88.558594 65.734375 88.914062 65.53125 89.246094 65.296875 C 89.410156 65.183594 89.574219 65.0625 89.730469 64.9375 L 89.847656 64.84375 L 89.964844 64.753906 C 90.039062 64.691406 90.117188 64.628906 90.191406 64.566406 C 90.34375 64.4375 90.488281 64.304688 90.628906 64.167969 C 90.699219 64.101562 90.769531 64.03125 90.835938 63.960938 L 90.9375 63.855469 L 91.042969 63.75 C 91.3125 63.472656 91.5625 63.175781 91.796875 62.859375 C 92.738281 61.621094 93.429688 60.175781 93.902344 58.503906 C 94 58.171875 94.09375 57.84375 94.183594 57.515625 C 94.285156 57.191406 94.382812 56.867188 94.476562 56.550781 C 94.527344 56.386719 94.578125 56.222656 94.625 56.0625 C 94.679688 55.90625 94.730469 55.746094 94.78125 55.589844 C 94.882812 55.269531 94.984375 54.949219 95.089844 54.632812 C 95.199219 54.320312 95.308594 54.007812 95.414062 53.699219 C 95.441406 53.617188 95.46875 53.539062 95.496094 53.464844 C 95.523438 53.382812 95.550781 53.304688 95.582031 53.230469 C 95.636719 53.078125 95.695312 52.925781 95.75 52.773438 C 95.808594 52.617188 95.863281 52.464844 95.921875 52.3125 C 95.949219 52.238281 95.980469 52.160156 96.007812 52.082031 L 96.050781 51.96875 L 96.097656 51.855469 C 96.21875 51.554688 96.335938 51.257812 96.457031 50.960938 C 96.574219 50.660156 96.703125 50.375 96.828125 50.082031 C 96.890625 49.9375 96.957031 49.792969 97.019531 49.648438 C 97.050781 49.574219 97.082031 49.503906 97.113281 49.429688 C 97.144531 49.355469 97.179688 49.289062 97.210938 49.21875 C 97.34375 48.933594 97.476562 48.65625 97.609375 48.375 C 97.640625 48.304688 97.675781 48.234375 97.707031 48.164062 C 97.742188 48.09375 97.777344 48.027344 97.8125 47.960938 C 97.878906 47.820312 97.949219 47.6875 98.015625 47.550781 C 98.085938 47.414062 98.15625 47.28125 98.222656 47.144531 C 98.257812 47.078125 98.292969 47.007812 98.328125 46.945312 C 98.363281 46.878906 98.398438 46.8125 98.433594 46.746094 C 98.578125 46.484375 98.71875 46.226562 98.863281 45.96875 C 98.933594 45.835938 99.007812 45.710938 99.082031 45.585938 C 99.15625 45.460938 99.230469 45.335938 99.300781 45.210938 C 99.378906 45.089844 99.449219 44.964844 99.523438 44.84375 C 99.597656 44.71875 99.675781 44.601562 99.75 44.480469 C 99.898438 44.242188 100.050781 44.007812 100.199219 43.777344 C 100.351562 43.546875 100.507812 43.324219 100.660156 43.101562 C 100.738281 42.988281 100.8125 42.878906 100.890625 42.769531 C 100.96875 42.664062 101.042969 42.558594 101.121094 42.453125 C 101.277344 42.242188 101.429688 42.035156 101.585938 41.832031 C 101.898438 41.4375 102.203125 41.046875 102.515625 40.691406 C 102.59375 40.601562 102.667969 40.511719 102.742188 40.425781 C 102.820312 40.335938 102.894531 40.25 102.972656 40.167969 C 103.128906 40 103.277344 39.835938 103.429688 39.675781 C 104.597656 38.417969 105.574219 37.523438 106.167969 36.996094 C 106.335938 36.847656 106.382812 36.652344 106.324219 36.472656 " fill-opacity="1" fill-rule="nonzero"/></g></g></g><g fill="#2c4a54" fill-opacity="1"><g transform="translate(70.987945, 164.725051)"><g><path d="M 32.296875 -44.1875 C 32.703125 -44.925781 33.300781 -45.421875 34.09375 -45.671875 C 34.894531 -45.921875 35.890625 -46.046875 37.078125 -46.046875 C 38.273438 -46.046875 39.238281 -45.941406 39.96875 -45.734375 C 40.707031 -45.523438 41.253906 -45.269531 41.609375 -44.96875 C 41.960938 -44.675781 42.226562 -44.238281 42.40625 -43.65625 C 42.65625 -42.988281 42.78125 -41.921875 42.78125 -40.453125 L 42.78125 -5.53125 C 42.78125 -4.53125 42.75 -3.796875 42.6875 -3.328125 C 42.625 -2.867188 42.421875 -2.328125 42.078125 -1.703125 C 41.492188 -0.566406 39.859375 0 37.171875 0 C 35.535156 0 34.40625 -0.125 33.78125 -0.375 C 33.15625 -0.625 32.628906 -1.023438 32.203125 -1.578125 C 22.765625 -14.148438 16.5625 -22.367188 13.59375 -26.234375 L 13.59375 -5.53125 C 13.59375 -4.53125 13.5625 -3.796875 13.5 -3.328125 C 13.4375 -2.867188 13.234375 -2.328125 12.890625 -1.703125 C 12.304688 -0.566406 10.671875 0 7.984375 0 C 5.390625 0 3.796875 -0.566406 3.203125 -1.703125 C 2.867188 -2.328125 2.671875 -2.890625 2.609375 -3.390625 C 2.546875 -3.898438 2.515625 -4.632812 2.515625 -5.59375 L 2.515625 -40.703125 C 2.515625 -42.296875 2.710938 -43.457031 3.109375 -44.1875 C 3.515625 -44.925781 4.113281 -45.421875 4.90625 -45.671875 C 5.707031 -45.921875 6.734375 -46.046875 7.984375 -46.046875 C 9.242188 -46.046875 10.238281 -45.929688 10.96875 -45.703125 C 11.707031 -45.472656 12.222656 -45.210938 12.515625 -44.921875 C 12.679688 -44.785156 13.164062 -44.238281 13.96875 -43.28125 C 22.8125 -31.238281 28.722656 -23.289062 31.703125 -19.4375 L 31.703125 -40.703125 C 31.703125 -42.296875 31.898438 -43.457031 32.296875 -44.1875 Z M 32.296875 -44.1875 "/></g></g></g><g fill="#2c4a54" fill-opacity="1"><g transform="translate(117.222688, 164.725051)"><g><path d="M 1.578125 -16.546875 C 1.578125 -21.578125 3.335938 -25.726562 6.859375 -29 C 10.378906 -32.269531 14.40625 -33.90625 18.9375 -33.90625 C 23.46875 -33.90625 27.472656 -32.28125 30.953125 -29.03125 C 34.429688 -25.78125 36.171875 -21.640625 36.171875 -16.609375 C 36.171875 -13.128906 35.269531 -10.035156 33.46875 -7.328125 C 31.664062 -4.617188 29.472656 -2.625 26.890625 -1.34375 C 24.316406 -0.0703125 21.644531 0.5625 18.875 0.5625 C 16.101562 0.5625 13.414062 -0.113281 10.8125 -1.46875 C 8.21875 -2.832031 6.03125 -4.847656 4.25 -7.515625 C 2.46875 -10.179688 1.578125 -13.191406 1.578125 -16.546875 Z M 14.71875 -12.046875 C 16.0625 -11.015625 17.425781 -10.5 18.8125 -10.5 C 20.195312 -10.5 21.578125 -11.023438 22.953125 -12.078125 C 24.335938 -13.128906 25.03125 -14.679688 25.03125 -16.734375 C 25.03125 -18.785156 24.378906 -20.3125 23.078125 -21.3125 C 21.785156 -22.320312 20.382812 -22.828125 18.875 -22.828125 C 17.363281 -22.828125 15.957031 -22.300781 14.65625 -21.25 C 13.351562 -20.207031 12.703125 -18.671875 12.703125 -16.640625 C 12.703125 -14.609375 13.375 -13.078125 14.71875 -12.046875 Z M 14.71875 -12.046875 "/></g></g></g><g fill="#2c4a54" fill-opacity="1"><g transform="translate(155.908919, 164.725051)"><g><path d="M 21.765625 -22.015625 L 17.671875 -22.265625 L 17.671875 -13.59375 C 17.671875 -12.457031 17.847656 -11.632812 18.203125 -11.125 C 18.566406 -10.625 19.238281 -10.375 20.21875 -10.375 C 21.207031 -10.375 21.960938 -10.34375 22.484375 -10.28125 C 23.015625 -10.21875 23.570312 -10.019531 24.15625 -9.6875 C 25.125 -9.144531 25.609375 -7.738281 25.609375 -5.46875 C 25.609375 -2.832031 25.019531 -1.21875 23.84375 -0.625 C 23.207031 -0.332031 22.648438 -0.15625 22.171875 -0.09375 C 21.691406 -0.03125 20.988281 0 20.0625 0 C 15.707031 0 12.394531 -0.984375 10.125 -2.953125 C 7.863281 -4.921875 6.734375 -8.253906 6.734375 -12.953125 L 6.734375 -22.265625 C 5.929688 -22.140625 5.066406 -22.078125 4.140625 -22.078125 C 3.222656 -22.078125 2.457031 -22.429688 1.84375 -23.140625 C 1.238281 -23.859375 0.9375 -25.078125 0.9375 -26.796875 C 0.9375 -28.515625 1.039062 -29.757812 1.25 -30.53125 C 1.46875 -31.3125 1.765625 -31.867188 2.140625 -32.203125 C 2.804688 -32.753906 3.644531 -33.03125 4.65625 -33.03125 L 6.734375 -32.78125 L 6.734375 -39.25 C 6.734375 -40.21875 6.765625 -40.929688 6.828125 -41.390625 C 6.890625 -41.847656 7.085938 -42.351562 7.421875 -42.90625 C 7.960938 -43.945312 9.578125 -44.46875 12.265625 -44.46875 C 15.117188 -44.46875 16.816406 -43.691406 17.359375 -42.140625 C 17.566406 -41.472656 17.671875 -40.40625 17.671875 -38.9375 L 17.671875 -32.78125 C 19.515625 -32.945312 20.910156 -33.03125 21.859375 -33.03125 C 22.804688 -33.03125 23.519531 -33 24 -32.9375 C 24.476562 -32.875 25.035156 -32.671875 25.671875 -32.328125 C 26.753906 -31.785156 27.296875 -30.171875 27.296875 -27.484375 C 27.296875 -24.847656 26.734375 -23.234375 25.609375 -22.640625 C 24.972656 -22.347656 24.414062 -22.171875 23.9375 -22.109375 C 23.457031 -22.046875 22.734375 -22.015625 21.765625 -22.015625 Z M 21.765625 -22.015625 "/></g></g></g><g fill="#2c4a54" fill-opacity="1"><g transform="translate(185.09662, 164.725051)"><g><path d="M 34.46875 -20.53125 C 34.46875 -17.957031 33.828125 -16.050781 32.546875 -14.8125 C 31.273438 -13.570312 29.863281 -12.953125 28.3125 -12.953125 L 13.40625 -12.953125 C 13.40625 -11.785156 14.09375 -10.800781 15.46875 -10 C 16.851562 -9.207031 18.238281 -8.8125 19.625 -8.8125 C 22.0625 -8.8125 23.96875 -9.0625 25.34375 -9.5625 L 26.046875 -9.8125 C 27.046875 -10.269531 27.882812 -10.5 28.5625 -10.5 C 29.90625 -10.5 31.054688 -9.554688 32.015625 -7.671875 C 32.566406 -6.535156 32.84375 -5.570312 32.84375 -4.78125 C 32.84375 -1.050781 28.375 0.8125 19.4375 0.8125 C 16.332031 0.8125 13.570312 0.28125 11.15625 -0.78125 C 8.75 -1.851562 6.875 -3.269531 5.53125 -5.03125 C 2.894531 -8.425781 1.578125 -12.222656 1.578125 -16.421875 C 1.578125 -21.703125 3.285156 -25.925781 6.703125 -29.09375 C 10.117188 -32.257812 14.382812 -33.84375 19.5 -33.84375 C 25.332031 -33.84375 29.609375 -31.785156 32.328125 -27.671875 C 33.753906 -25.492188 34.46875 -23.113281 34.46875 -20.53125 Z M 21.203125 -18.6875 C 22.796875 -18.6875 23.59375 -19.359375 23.59375 -20.703125 C 23.59375 -21.660156 23.222656 -22.429688 22.484375 -23.015625 C 21.753906 -23.609375 20.707031 -23.90625 19.34375 -23.90625 C 17.976562 -23.90625 16.625 -23.347656 15.28125 -22.234375 C 13.9375 -21.128906 13.265625 -19.945312 13.265625 -18.6875 Z M 21.203125 -18.6875 "/></g></g></g><g fill="#2c4a54" fill-opacity="1"><g transform="translate(222.087127, 164.725051)"><g/></g></g><g fill="#7cd6ce" fill-opacity="1"><g transform="translate(207.080403, 164.725058)"><g/></g></g><g fill="#7cd6ce" fill-opacity="1"><g transform="translate(223.945267, 164.725058)"><g><path d="M 32.296875 -44.1875 C 32.703125 -44.925781 33.300781 -45.421875 34.09375 -45.671875 C 34.894531 -45.921875 35.890625 -46.046875 37.078125 -46.046875 C 38.273438 -46.046875 39.238281 -45.941406 39.96875 -45.734375 C 40.707031 -45.523438 41.253906 -45.269531 41.609375 -44.96875 C 41.960938 -44.675781 42.226562 -44.238281 42.40625 -43.65625 C 42.65625 -42.988281 42.78125 -41.921875 42.78125 -40.453125 L 42.78125 -5.53125 C 42.78125 -4.53125 42.75 -3.796875 42.6875 -3.328125 C 42.625 -2.867188 42.421875 -2.328125 42.078125 -1.703125 C 41.492188 -0.566406 39.859375 0 37.171875 0 C 35.535156 0 34.40625 -0.125 33.78125 -0.375 C 33.15625 -0.625 32.628906 -1.023438 32.203125 -1.578125 C 22.765625 -14.148438 16.5625 -22.367188 13.59375 -26.234375 L 13.59375 -5.53125 C 13.59375 -4.53125 13.5625 -3.796875 13.5 -3.328125 C 13.4375 -2.867188 13.234375 -2.328125 12.890625 -1.703125 C 12.304688 -0.566406 10.671875 0 7.984375 0 C 5.390625 0 3.796875 -0.566406 3.203125 -1.703125 C 2.867188 -2.328125 2.671875 -2.890625 2.609375 -3.390625 C 2.546875 -3.898438 2.515625 -4.632812 2.515625 -5.59375 L 2.515625 -40.703125 C 2.515625 -42.296875 2.710938 -43.457031 3.109375 -44.1875 C 3.515625 -44.925781 4.113281 -45.421875 4.90625 -45.671875 C 5.707031 -45.921875 6.734375 -46.046875 7.984375 -46.046875 C 9.242188 -46.046875 10.238281 -45.929688 10.96875 -45.703125 C 11.707031 -45.472656 12.222656 -45.210938 12.515625 -44.921875 C 12.679688 -44.785156 13.164062 -44.238281 13.96875 -43.28125 C 22.8125 -31.238281 28.722656 -23.289062 31.703125 -19.4375 L 31.703125 -40.703125 C 31.703125 -42.296875 31.898438 -43.457031 32.296875 -44.1875 Z M 32.296875 -44.1875 "/></g></g></g><g fill="#7cd6ce" fill-opacity="1"><g transform="translate(270.180011, 164.725058)"><g><path d="M 34.46875 -20.53125 C 34.46875 -17.957031 33.828125 -16.050781 32.546875 -14.8125 C 31.273438 -13.570312 29.863281 -12.953125 28.3125 -12.953125 L 13.40625 -12.953125 C 13.40625 -11.785156 14.09375 -10.800781 15.46875 -10 C 16.851562 -9.207031 18.238281 -8.8125 19.625 -8.8125 C 22.0625 -8.8125 23.96875 -9.0625 25.34375 -9.5625 L 26.046875 -9.8125 C 27.046875 -10.269531 27.882812 -10.5 28.5625 -10.5 C 29.90625 -10.5 31.054688 -9.554688 32.015625 -7.671875 C 32.566406 -6.535156 32.84375 -5.570312 32.84375 -4.78125 C 32.84375 -1.050781 28.375 0.8125 19.4375 0.8125 C 16.332031 0.8125 13.570312 0.28125 11.15625 -0.78125 C 8.75 -1.851562 6.875 -3.269531 5.53125 -5.03125 C 2.894531 -8.425781 1.578125 -12.222656 1.578125 -16.421875 C 1.578125 -21.703125 3.285156 -25.925781 6.703125 -29.09375 C 10.117188 -32.257812 14.382812 -33.84375 19.5 -33.84375 C 25.332031 -33.84375 29.609375 -31.785156 32.328125 -27.671875 C 33.753906 -25.492188 34.46875 -23.113281 34.46875 -20.53125 Z M 21.203125 -18.6875 C 22.796875 -18.6875 23.59375 -19.359375 23.59375 -20.703125 C 23.59375 -21.660156 23.222656 -22.429688 22.484375 -23.015625 C 21.753906 -23.609375 20.707031 -23.90625 19.34375 -23.90625 C 17.976562 -23.90625 16.625 -23.347656 15.28125 -22.234375 C 13.9375 -21.128906 13.265625 -19.945312 13.265625 -18.6875 Z M 21.203125 -18.6875 "/></g></g></g><g fill="#7cd6ce" fill-opacity="1"><g transform="translate(307.167829, 164.725058)"><g><path d="M 2.765625 -2.953125 C 1.972656 -3.460938 1.578125 -4.257812 1.578125 -5.34375 C 1.578125 -6.4375 2.375 -8.09375 3.96875 -10.3125 C 4.425781 -11.03125 5.164062 -11.390625 6.1875 -11.390625 C 7.21875 -11.390625 8.613281 -10.875 10.375 -9.84375 C 12.132812 -8.8125 13.726562 -8.296875 15.15625 -8.296875 C 17.71875 -8.296875 19 -8.800781 19 -9.8125 C 19 -10.613281 17.59375 -11.203125 14.78125 -11.578125 C 12.132812 -11.953125 9.515625 -12.9375 6.921875 -14.53125 C 5.703125 -15.28125 4.691406 -16.460938 3.890625 -18.078125 C 3.097656 -19.691406 2.703125 -21.613281 2.703125 -23.84375 C 2.703125 -30.46875 7.253906 -33.78125 16.359375 -33.78125 C 19.335938 -33.78125 22.398438 -33.066406 25.546875 -31.640625 C 27.003906 -30.972656 27.734375 -30.132812 27.734375 -29.125 C 27.734375 -28.113281 27.269531 -26.875 26.34375 -25.40625 C 25.425781 -23.945312 24.488281 -23.21875 23.53125 -23.21875 C 23.019531 -23.21875 22.082031 -23.53125 20.71875 -24.15625 C 19.363281 -24.78125 17.890625 -25.09375 16.296875 -25.09375 C 13.816406 -25.09375 12.578125 -24.632812 12.578125 -23.71875 C 12.578125 -22.457031 14.003906 -21.640625 16.859375 -21.265625 C 19.628906 -20.972656 22.3125 -20.175781 24.90625 -18.875 C 26.125 -18.28125 27.140625 -17.257812 27.953125 -15.8125 C 28.773438 -14.375 29.1875 -12.5625 29.1875 -10.375 C 29.1875 -8.195312 28.773438 -6.34375 27.953125 -4.8125 C 27.140625 -3.28125 26 -2.140625 24.53125 -1.390625 C 21.84375 -0.0859375 18.472656 0.5625 14.421875 0.5625 C 10.378906 0.5625 6.492188 -0.609375 2.765625 -2.953125 Z M 2.765625 -2.953125 "/></g></g></g><g fill="#7cd6ce" fill-opacity="1"><g transform="translate(338.871701, 164.725058)"><g><path d="M 21.765625 -22.015625 L 17.671875 -22.265625 L 17.671875 -13.59375 C 17.671875 -12.457031 17.847656 -11.632812 18.203125 -11.125 C 18.566406 -10.625 19.238281 -10.375 20.21875 -10.375 C 21.207031 -10.375 21.960938 -10.34375 22.484375 -10.28125 C 23.015625 -10.21875 23.570312 -10.019531 24.15625 -9.6875 C 25.125 -9.144531 25.609375 -7.738281 25.609375 -5.46875 C 25.609375 -2.832031 25.019531 -1.21875 23.84375 -0.625 C 23.207031 -0.332031 22.648438 -0.15625 22.171875 -0.09375 C 21.691406 -0.03125 20.988281 0 20.0625 0 C 15.707031 0 12.394531 -0.984375 10.125 -2.953125 C 7.863281 -4.921875 6.734375 -8.253906 6.734375 -12.953125 L 6.734375 -22.265625 C 5.929688 -22.140625 5.066406 -22.078125 4.140625 -22.078125 C 3.222656 -22.078125 2.457031 -22.429688 1.84375 -23.140625 C 1.238281 -23.859375 0.9375 -25.078125 0.9375 -26.796875 C 0.9375 -28.515625 1.039062 -29.757812 1.25 -30.53125 C 1.46875 -31.3125 1.765625 -31.867188 2.140625 -32.203125 C 2.804688 -32.753906 3.644531 -33.03125 4.65625 -33.03125 L 6.734375 -32.78125 L 6.734375 -39.25 C 6.734375 -40.21875 6.765625 -40.929688 6.828125 -41.390625 C 6.890625 -41.847656 7.085938 -42.351562 7.421875 -42.90625 C 7.960938 -43.945312 9.578125 -44.46875 12.265625 -44.46875 C 15.117188 -44.46875 16.816406 -43.691406 17.359375 -42.140625 C 17.566406 -41.472656 17.671875 -40.40625 17.671875 -38.9375 L 17.671875 -32.78125 C 19.515625 -32.945312 20.910156 -33.03125 21.859375 -33.03125 C 22.804688 -33.03125 23.519531 -33 24 -32.9375 C 24.476562 -32.875 25.035156 -32.671875 25.671875 -32.328125 C 26.753906 -31.785156 27.296875 -30.171875 27.296875 -27.484375 C 27.296875 -24.847656 26.734375 -23.234375 25.609375 -22.640625 C 24.972656 -22.347656 24.414062 -22.171875 23.9375 -22.109375 C 23.457031 -22.046875 22.734375 -22.015625 21.765625 -22.015625 Z M 21.765625 -22.015625 "/></g></g></g></svg>