<svg xmlns="http://www.w3.org/2000/svg" xmlns:xlink="http://www.w3.org/1999/xlink" width="500" zoomAndPan="magnify" viewBox="0 0 375 374.999991" height="500" preserveAspectRatio="xMidYMid meet" version="1.0"><defs><clipPath id="c865d796a8"><path d="M 1.246094 1.246094 L 373.753906 1.246094 L 373.753906 373.753906 L 1.246094 373.753906 Z M 1.246094 1.246094 " clip-rule="nonzero"/></clipPath><clipPath id="8765042a7f"><path d="M 187.5 1.246094 C 84.636719 1.246094 1.246094 84.636719 1.246094 187.5 C 1.246094 290.363281 84.636719 373.753906 187.5 373.753906 C 290.363281 373.753906 373.753906 290.363281 373.753906 187.5 C 373.753906 84.636719 290.363281 1.246094 187.5 1.246094 Z M 187.5 1.246094 " clip-rule="nonzero"/></clipPath><clipPath id="1733376657"><path d="M 20.367188 347 L 25 347 L 25 352.625 L 20.367188 352.625 Z M 20.367188 347 " clip-rule="nonzero"/></clipPath><clipPath id="764e63b7bf"><path d="M 186 137 L 277.753906 137 L 277.753906 234 L 186 234 Z M 186 137 " clip-rule="nonzero"/></clipPath><clipPath id="665263d8b6"><path d="M 193 19.09375 L 220 19.09375 L 220 94 L 193 94 Z M 193 19.09375 " clip-rule="nonzero"/></clipPath></defs><g clip-path="url(#c865d796a8)"><g clip-path="url(#8765042a7f)"><path fill="#36c6c9" d="M 1.246094 1.246094 L 373.753906 1.246094 L 373.753906 373.753906 L 1.246094 373.753906 Z M 1.246094 1.246094 " fill-opacity="1" fill-rule="nonzero"/></g></g><path fill="#ffffff" d="M 175.785156 173.613281 C 177 172.441406 178.214844 171.292969 179.433594 170.167969 C 179.324219 170.019531 179.214844 169.871094 179.109375 169.71875 C 178.003906 170.660156 176.761719 171.757812 175.378906 173.027344 C 175.390625 173.042969 175.40625 173.0625 175.417969 173.082031 L 175.785156 173.613281 " fill-opacity="1" fill-rule="nonzero"/><path fill="#ffffff" d="M 178.53125 171.707031 C 178.371094 171.5 178.210938 171.292969 178.050781 171.085938 C 176.898438 171.875 176.28125 172.25 176.28125 172.25 C 177.011719 172.105469 177.761719 171.921875 178.53125 171.707031 " fill-opacity="1" fill-rule="nonzero"/><g clip-path="url(#1733376657)"><path fill="#ffffff" d="M 22.609375 347.632812 C 21.902344 349.335938 21.191406 351.066406 20.476562 352.816406 C 21.050781 352.871094 21.621094 352.917969 22.195312 352.96875 C 22.886719 351.226562 23.582031 349.484375 24.285156 347.738281 C 23.726562 347.703125 23.167969 347.667969 22.609375 347.632812 " fill-opacity="1" fill-rule="nonzero"/></g><g clip-path="url(#764e63b7bf)"><path fill="#ffffff" d="M 277.042969 197.117188 L 277.078125 196.832031 L 277.144531 196.257812 C 277.167969 196.066406 277.195312 195.875 277.210938 195.6875 L 277.25 195.113281 L 277.285156 194.542969 C 277.296875 194.351562 277.3125 194.160156 277.3125 193.96875 L 277.328125 192.832031 C 277.328125 192.738281 277.332031 192.640625 277.328125 192.546875 L 277.316406 192.261719 L 277.296875 191.699219 C 277.28125 191.320312 277.273438 190.941406 277.234375 190.570312 L 277.132812 189.449219 C 277.121094 189.261719 277.089844 189.078125 277.066406 188.894531 L 276.992188 188.339844 C 276.902344 187.597656 276.753906 186.875 276.621094 186.148438 L 276.570312 185.875 L 276.507812 185.605469 L 276.382812 185.070312 C 276.300781 184.714844 276.222656 184.351562 276.132812 184 L 275.839844 182.945312 L 275.695312 182.417969 C 275.644531 182.242188 275.589844 182.070312 275.535156 181.898438 C 275.3125 181.207031 275.101562 180.511719 274.847656 179.839844 L 274.480469 178.824219 C 274.355469 178.488281 274.214844 178.160156 274.082031 177.828125 C 273.015625 175.171875 271.769531 172.628906 270.410156 170.179688 L 269.898438 169.261719 L 269.769531 169.03125 L 269.636719 168.808594 L 269.371094 168.359375 L 268.835938 167.460938 L 268.566406 167.011719 L 268.289062 166.570312 C 267.921875 165.984375 267.554688 165.394531 267.179688 164.8125 C 266.796875 164.234375 266.414062 163.660156 266.03125 163.085938 C 264.476562 160.804688 262.855469 158.589844 261.179688 156.433594 C 260.765625 155.894531 260.335938 155.367188 259.910156 154.835938 L 259.277344 154.035156 L 258.625 153.25 C 258.195312 152.730469 257.761719 152.207031 257.328125 151.683594 C 256.886719 151.171875 256.445312 150.65625 256.003906 150.144531 L 255.34375 149.378906 L 254.671875 148.621094 C 254.222656 148.113281 253.777344 147.613281 253.328125 147.109375 C 252.878906 146.609375 252.417969 146.117188 251.96875 145.621094 L 251.285156 144.878906 L 250.597656 144.144531 C 248.511719 141.925781 246.386719 139.757812 244.238281 137.632812 C 243.367188 139.410156 242.480469 141.195312 241.585938 142.992188 C 242.171875 143.601562 242.753906 144.210938 243.335938 144.828125 L 244.09375 145.628906 L 244.472656 146.03125 L 244.847656 146.4375 C 245.347656 146.980469 245.84375 147.519531 246.34375 148.0625 L 246.71875 148.46875 L 247.085938 148.882812 L 247.824219 149.707031 C 248.3125 150.257812 248.8125 150.804688 249.289062 151.367188 C 253.171875 155.816406 256.886719 160.441406 260.207031 165.324219 C 261.871094 167.761719 263.4375 170.261719 264.847656 172.832031 C 266.261719 175.402344 267.523438 178.042969 268.550781 180.742188 C 268.621094 180.90625 268.679688 181.078125 268.738281 181.246094 L 268.917969 181.757812 L 269.1875 182.519531 L 269.269531 182.777344 C 269.476562 183.460938 269.707031 184.140625 269.875 184.832031 L 270.015625 185.347656 C 270.0625 185.519531 270.109375 185.6875 270.144531 185.863281 L 270.378906 186.898438 L 270.433594 187.15625 L 270.480469 187.417969 L 270.667969 188.457031 L 270.707031 188.714844 L 270.738281 188.972656 L 270.875 190.015625 L 270.960938 191.050781 L 270.984375 191.3125 C 270.988281 191.394531 270.988281 191.480469 270.996094 191.566406 L 271.011719 192.082031 L 271.03125 192.601562 C 271.03125 192.773438 271.023438 192.941406 271.023438 193.117188 L 271.015625 193.628906 L 271.011719 193.886719 C 271.007812 193.96875 271 194.054688 270.996094 194.140625 L 270.921875 195.160156 L 270.796875 196.167969 C 270.78125 196.339844 270.746094 196.503906 270.71875 196.667969 L 270.625 197.167969 C 270.113281 199.8125 269.109375 202.339844 267.609375 204.617188 C 266.863281 205.757812 266.003906 206.839844 265.058594 207.863281 C 264.820312 208.117188 264.589844 208.378906 264.332031 208.621094 L 263.957031 208.992188 C 263.828125 209.113281 263.707031 209.238281 263.574219 209.355469 L 262.789062 210.070312 L 261.96875 210.753906 C 260.855469 211.65625 259.675781 212.496094 258.453125 213.289062 L 257.523438 213.871094 C 257.210938 214.0625 256.890625 214.242188 256.574219 214.429688 C 256.261719 214.621094 255.933594 214.792969 255.609375 214.96875 C 255.285156 215.148438 254.964844 215.328125 254.628906 215.496094 C 253.320312 216.1875 251.960938 216.8125 250.582031 217.414062 C 249.207031 218.019531 247.792969 218.5625 246.367188 219.085938 C 243.886719 219.984375 241.359375 220.773438 238.804688 221.476562 C 236.246094 222.175781 233.660156 222.792969 231.058594 223.339844 C 225.855469 224.4375 220.59375 225.257812 215.320312 225.898438 C 207.132812 226.894531 198.925781 227.460938 190.757812 227.746094 C 189.21875 229.769531 187.675781 231.753906 186.125 233.699219 C 186.835938 233.691406 187.542969 233.683594 188.25 233.671875 C 191.269531 233.632812 194.296875 233.550781 197.335938 233.421875 C 200.375 233.296875 203.421875 233.121094 206.476562 232.894531 C 209.535156 232.671875 212.597656 232.394531 215.667969 232.050781 C 218.734375 231.707031 221.8125 231.308594 224.886719 230.820312 C 227.964844 230.332031 231.046875 229.773438 234.121094 229.101562 L 235.273438 228.847656 L 236.425781 228.578125 L 237.003906 228.445312 L 237.578125 228.304688 L 238.730469 228.019531 L 239.878906 227.71875 L 240.457031 227.566406 L 241.027344 227.410156 L 242.175781 227.089844 L 243.324219 226.75 L 243.898438 226.578125 L 244.464844 226.402344 L 245.609375 226.042969 L 246.75 225.664062 C 246.941406 225.597656 247.128906 225.539062 247.320312 225.472656 L 247.886719 225.269531 C 249.40625 224.742188 250.910156 224.15625 252.410156 223.539062 C 255.402344 222.285156 258.351562 220.832031 261.183594 219.082031 C 261.539062 218.859375 261.894531 218.644531 262.242188 218.410156 L 263.285156 217.710938 C 263.972656 217.222656 264.660156 216.738281 265.324219 216.207031 C 266.660156 215.164062 267.945312 214.027344 269.15625 212.789062 C 270.359375 211.546875 271.480469 210.195312 272.480469 208.738281 C 273.484375 207.285156 274.359375 205.722656 275.078125 204.082031 C 275.226562 203.722656 275.378906 203.367188 275.523438 203.007812 L 275.914062 201.910156 C 275.945312 201.816406 275.980469 201.726562 276.007812 201.632812 L 276.089844 201.355469 L 276.417969 200.238281 L 276.550781 199.675781 L 276.683594 199.109375 C 276.726562 198.921875 276.769531 198.730469 276.800781 198.542969 L 277 197.402344 C 277.019531 197.308594 277.03125 197.210938 277.042969 197.117188 " fill-opacity="1" fill-rule="nonzero"/></g><g clip-path="url(#665263d8b6)"><path fill="#ffffff" d="M 207.832031 89.832031 C 205.316406 85.664062 203.035156 81.398438 201.101562 77.023438 C 200.132812 74.839844 199.257812 72.625 198.488281 70.390625 C 197.722656 68.152344 197.0625 65.890625 196.554688 63.609375 C 195.53125 59.050781 195.082031 54.402344 195.472656 49.847656 C 195.671875 47.570312 196.09375 45.328125 196.738281 43.15625 C 197.382812 40.988281 198.253906 38.886719 199.332031 36.90625 C 200.40625 34.917969 201.695312 33.054688 203.140625 31.320312 C 204.582031 29.585938 206.1875 27.988281 207.898438 26.519531 C 209.609375 25.050781 211.421875 23.710938 213.300781 22.472656 C 213.777344 22.171875 214.25 21.867188 214.722656 21.566406 C 215.207031 21.277344 215.6875 20.992188 216.171875 20.707031 C 216.652344 20.414062 217.148438 20.152344 217.636719 19.882812 C 218.132812 19.617188 218.617188 19.335938 219.121094 19.089844 C 216.878906 20.109375 214.667969 21.238281 212.523438 22.515625 C 210.378906 23.796875 208.308594 25.234375 206.359375 26.851562 C 205.875 27.261719 205.398438 27.683594 204.921875 28.097656 C 204.453125 28.53125 203.996094 28.972656 203.53125 29.414062 C 203.3125 29.644531 203.089844 29.875 202.867188 30.105469 L 202.535156 30.453125 C 202.425781 30.566406 202.3125 30.679688 202.210938 30.804688 C 202 31.042969 201.785156 31.289062 201.574219 31.527344 L 201.257812 31.890625 C 201.148438 32.011719 201.054688 32.140625 200.953125 32.265625 C 199.328125 34.261719 197.898438 36.449219 196.734375 38.796875 C 195.574219 41.144531 194.703125 43.65625 194.101562 46.242188 C 194.058594 46.40625 194.027344 46.570312 193.996094 46.730469 L 193.898438 47.21875 L 193.800781 47.710938 L 193.75 47.957031 L 193.710938 48.203125 C 193.613281 48.859375 193.492188 49.519531 193.433594 50.183594 C 193.394531 50.515625 193.355469 50.847656 193.320312 51.183594 C 193.296875 51.519531 193.273438 51.851562 193.25 52.1875 L 193.210938 52.6875 C 193.203125 52.855469 193.199219 53.023438 193.195312 53.1875 C 193.183594 53.527344 193.171875 53.863281 193.160156 54.199219 C 193.113281 56.886719 193.324219 59.589844 193.722656 62.273438 C 193.765625 62.609375 193.828125 62.941406 193.882812 63.277344 C 193.941406 63.609375 193.996094 63.945312 194.058594 64.28125 C 194.121094 64.617188 194.191406 64.949219 194.257812 65.28125 C 194.324219 65.613281 194.386719 65.949219 194.46875 66.28125 C 194.621094 66.941406 194.765625 67.609375 194.941406 68.269531 C 195.027344 68.601562 195.113281 68.929688 195.195312 69.261719 C 195.289062 69.589844 195.382812 69.917969 195.476562 70.246094 C 196.972656 75.507812 199.070312 80.628906 201.515625 85.609375 C 202.777344 88.183594 204.144531 90.722656 205.589844 93.226562 C 206.410156 92.214844 207.234375 91.207031 208.066406 90.210938 C 207.988281 90.085938 207.910156 89.957031 207.832031 89.832031 " fill-opacity="1" fill-rule="nonzero"/></g><path fill="#ffffff" d="M 124.226562 229.484375 C 123.578125 229.53125 122.929688 229.59375 122.28125 229.644531 C 119.691406 229.878906 117.109375 230.1875 114.542969 230.597656 C 111.976562 231.003906 109.425781 231.515625 106.902344 232.152344 C 106.269531 232.304688 105.644531 232.484375 105.015625 232.660156 L 104.546875 232.789062 L 104.078125 232.929688 L 103.144531 233.214844 C 102.832031 233.308594 102.523438 233.417969 102.214844 233.519531 L 101.289062 233.832031 L 100.367188 234.164062 C 100.0625 234.277344 99.753906 234.386719 99.453125 234.511719 L 98.542969 234.875 C 98.238281 234.992188 97.941406 235.128906 97.640625 235.257812 L 97.1875 235.453125 L 96.964844 235.550781 L 96.742188 235.652344 L 95.851562 236.070312 C 94.671875 236.648438 93.507812 237.25 92.382812 237.9375 L 91.960938 238.191406 C 91.820312 238.277344 91.683594 238.367188 91.542969 238.457031 C 91.265625 238.636719 90.988281 238.8125 90.714844 238.996094 L 89.699219 239.699219 L 89.5 239.847656 L 89.105469 240.148438 C 88.050781 240.945312 87.035156 241.796875 86.089844 242.730469 C 85.140625 243.65625 84.246094 244.640625 83.425781 245.6875 C 82.609375 246.734375 81.875 247.84375 81.222656 248.992188 C 79.914062 251.296875 78.953125 253.777344 78.359375 256.304688 C 77.761719 258.835938 77.488281 261.402344 77.484375 263.9375 C 77.476562 266.472656 77.707031 268.976562 78.121094 271.417969 C 78.941406 276.316406 80.414062 280.984375 82.195312 285.445312 C 83.988281 289.90625 86.101562 294.164062 88.394531 298.261719 C 90.695312 302.359375 93.179688 306.292969 95.792969 310.085938 C 98.40625 313.875 101.140625 317.527344 104.011719 321.015625 C 101.0625 317.015625 98.28125 312.832031 95.648438 308.503906 C 93.015625 304.175781 90.546875 299.683594 88.328125 295.019531 C 86.121094 290.355469 84.160156 285.515625 82.691406 280.496094 C 81.960938 277.980469 81.347656 275.429688 80.929688 272.839844 C 80.511719 270.25 80.277344 267.628906 80.3125 265.011719 C 80.34375 262.398438 80.65625 259.789062 81.328125 257.277344 C 82 254.769531 83.039062 252.371094 84.449219 250.203125 C 85.855469 248.03125 87.628906 246.097656 89.65625 244.4375 C 90.667969 243.609375 91.742188 242.84375 92.863281 242.140625 C 93.988281 241.441406 95.15625 240.808594 96.359375 240.222656 L 97.269531 239.796875 C 97.574219 239.660156 97.882812 239.53125 98.191406 239.394531 C 98.347656 239.328125 98.5 239.257812 98.65625 239.199219 L 99.59375 238.824219 C 99.75 238.761719 99.90625 238.699219 100.066406 238.644531 L 101.023438 238.296875 C 101.179688 238.238281 101.339844 238.183594 101.5 238.128906 L 101.984375 237.96875 C 102.625 237.75 103.28125 237.5625 103.929688 237.363281 C 106.550781 236.601562 109.242188 236.015625 111.96875 235.546875 C 114.699219 235.085938 117.46875 234.75 120.265625 234.519531 C 121.5 234.414062 122.738281 234.332031 123.984375 234.265625 C 124.089844 232.683594 124.222656 231.089844 124.378906 229.476562 C 124.328125 229.480469 124.277344 229.480469 124.226562 229.484375 " fill-opacity="1" fill-rule="nonzero"/><path fill="#ffffff" d="M 225.273438 165.820312 C 225.273438 165.820312 206.5625 179.863281 187.507812 167.9375 C 187.507812 167.9375 210.238281 168.132812 225.273438 165.820312 Z M 207.597656 195.519531 C 207.164062 195.765625 206.523438 196.109375 205.714844 196.511719 C 204.90625 196.917969 203.925781 197.382812 202.804688 197.867188 C 202.523438 197.988281 202.234375 198.113281 201.941406 198.238281 C 201.648438 198.367188 201.347656 198.492188 201.039062 198.621094 C 200.417969 198.878906 199.769531 199.136719 199.09375 199.390625 C 197.738281 199.894531 196.277344 200.378906 194.738281 200.804688 C 194.546875 200.855469 194.355469 200.90625 194.160156 200.960938 C 193.964844 201.011719 193.773438 201.0625 193.578125 201.113281 C 193.1875 201.214844 192.796875 201.3125 192.398438 201.402344 C 191.601562 201.585938 190.792969 201.746094 189.972656 201.878906 C 188.332031 202.148438 186.644531 202.304688 184.949219 202.308594 C 183.253906 202.3125 181.546875 202.15625 179.878906 201.796875 C 180.171875 201.714844 180.464844 201.625 180.765625 201.542969 L 183.449219 200.816406 C 184.636719 200.5 185.824219 200.183594 187.007812 199.875 C 188.195312 199.566406 189.375 199.257812 190.558594 198.964844 C 191.75 198.675781 192.9375 198.390625 194.121094 198.117188 C 195.308594 197.835938 196.488281 197.5625 197.667969 197.296875 L 199.433594 196.902344 C 199.726562 196.835938 200.023438 196.773438 200.320312 196.710938 L 201.207031 196.527344 C 203.578125 196.039062 205.929688 195.578125 208.269531 195.136719 C 208.269531 195.136719 208.035156 195.277344 207.597656 195.519531 Z M 115.160156 313.058594 C 114.792969 313.699219 113.980469 314.070312 113.175781 313.972656 C 111.851562 313.8125 111.117188 312.570312 111.726562 311.515625 C 112.097656 310.878906 112.910156 310.503906 113.710938 310.601562 C 115.039062 310.765625 115.769531 312.003906 115.160156 313.058594 Z M 274.015625 88.007812 C 273.976562 87.832031 273.882812 87.660156 273.738281 87.5 C 273.59375 87.34375 273.402344 87.203125 273.164062 87.09375 C 271.742188 86.453125 270.261719 85.898438 268.746094 85.421875 L 268.457031 85.332031 C 268.363281 85.300781 268.261719 85.273438 268.160156 85.246094 L 267.5625 85.078125 L 266.957031 84.914062 C 266.855469 84.886719 266.757812 84.863281 266.660156 84.835938 L 266.363281 84.761719 C 265.96875 84.664062 265.570312 84.566406 265.171875 84.476562 C 264.777344 84.386719 264.386719 84.300781 263.992188 84.21875 C 260.847656 83.558594 257.730469 83.164062 254.636719 82.988281 C 251.546875 82.808594 248.476562 82.851562 245.4375 83.070312 C 244.683594 83.128906 243.921875 83.191406 243.160156 83.269531 C 242.417969 83.351562 241.667969 83.441406 240.914062 83.539062 C 240.152344 83.628906 239.425781 83.753906 238.679688 83.871094 L 237.5625 84.058594 L 237.007812 84.15625 L 236.460938 84.261719 C 236.460938 84.261719 236.144531 84.3125 235.546875 84.445312 C 235.25 84.511719 234.878906 84.601562 234.445312 84.714844 C 234.230469 84.769531 233.996094 84.835938 233.742188 84.90625 C 233.5 84.980469 233.242188 85.0625 232.964844 85.152344 C 231.875 85.515625 230.519531 85.988281 229.039062 86.675781 C 228.667969 86.84375 228.28125 87.023438 227.886719 87.210938 C 227.6875 87.308594 227.484375 87.40625 227.285156 87.507812 C 227.085938 87.609375 226.886719 87.71875 226.679688 87.828125 C 225.871094 88.265625 225.015625 88.75 224.128906 89.285156 C 223.269531 89.832031 222.375 90.433594 221.460938 91.085938 C 220.996094 91.410156 220.554688 91.761719 220.097656 92.121094 C 219.640625 92.480469 219.179688 92.859375 218.71875 93.246094 C 218.488281 93.441406 218.253906 93.636719 218.019531 93.839844 C 217.792969 94.046875 217.566406 94.253906 217.339844 94.464844 C 216.882812 94.890625 216.425781 95.328125 215.96875 95.78125 C 215.738281 96.007812 215.507812 96.238281 215.277344 96.472656 C 215.21875 96.53125 215.164062 96.589844 215.105469 96.652344 C 215.050781 96.710938 214.996094 96.769531 214.9375 96.828125 C 214.828125 96.953125 214.71875 97.074219 214.605469 97.195312 C 214.160156 97.6875 213.714844 98.191406 213.273438 98.710938 C 212.371094 99.742188 211.539062 100.867188 210.695312 102.039062 C 210.488281 102.332031 210.28125 102.628906 210.074219 102.925781 C 209.96875 103.082031 209.863281 103.230469 209.765625 103.382812 C 209.667969 103.539062 209.570312 103.691406 209.46875 103.847656 C 209.078125 104.472656 208.6875 105.113281 208.304688 105.765625 C 208.113281 106.09375 207.925781 106.425781 207.734375 106.757812 C 207.644531 106.925781 207.546875 107.089844 207.457031 107.261719 C 207.371094 107.433594 207.28125 107.605469 207.191406 107.78125 C 206.839844 108.472656 206.496094 109.175781 206.15625 109.898438 C 205.988281 110.257812 205.824219 110.621094 205.65625 110.988281 C 205.574219 111.171875 205.492188 111.355469 205.414062 111.546875 C 205.339844 111.730469 205.265625 111.921875 205.1875 112.109375 C 204.886719 112.867188 204.59375 113.640625 204.308594 114.425781 C 204.308594 114.425781 204.195312 114.15625 204.152344 113.46875 C 204.132812 113.128906 204.132812 112.679688 204.175781 112.109375 C 204.195312 111.828125 204.230469 111.511719 204.277344 111.164062 C 204.300781 110.988281 204.328125 110.804688 204.355469 110.617188 C 204.371094 110.519531 204.390625 110.421875 204.40625 110.320312 C 204.425781 110.222656 204.449219 110.121094 204.46875 110.019531 C 204.644531 109.191406 204.898438 108.226562 205.257812 107.09375 C 205.4375 106.527344 205.644531 105.921875 205.882812 105.273438 C 206.136719 104.628906 206.421875 103.945312 206.742188 103.210938 C 207.066406 102.480469 207.425781 101.703125 207.828125 100.878906 C 208.25 100.058594 208.714844 99.195312 209.234375 98.277344 C 209.492188 97.820312 209.761719 97.347656 210.046875 96.863281 C 210.339844 96.386719 210.65625 95.894531 210.976562 95.390625 C 211.304688 94.886719 211.644531 94.367188 212 93.835938 C 212.175781 93.574219 212.359375 93.300781 212.546875 93.03125 C 212.738281 92.761719 212.9375 92.488281 213.136719 92.214844 L 212.386719 92.578125 C 212.261719 92.640625 212.140625 92.703125 212.019531 92.765625 L 211.65625 92.957031 L 210.195312 93.722656 L 208.738281 94.5 C 208.492188 94.632812 208.257812 94.765625 208.023438 94.898438 L 205.902344 96.128906 L 205.195312 96.542969 L 204.84375 96.753906 C 204.726562 96.820312 204.609375 96.890625 204.492188 96.960938 C 203.582031 97.53125 202.671875 98.109375 201.757812 98.695312 L 200.738281 99.351562 L 200.410156 99.578125 L 199.085938 100.484375 L 197.769531 101.402344 C 197.332031 101.707031 196.886719 102.015625 196.46875 102.332031 C 195.621094 102.960938 194.773438 103.59375 193.933594 104.238281 L 193.296875 104.71875 L 192.984375 104.960938 L 192.679688 105.207031 L 191.457031 106.191406 C 184.941406 111.46875 179.101562 117.222656 173.875 123.214844 C 173.761719 123.339844 173.660156 123.464844 173.554688 123.585938 L 173.246094 123.964844 C 173.039062 124.214844 172.835938 124.464844 172.636719 124.722656 C 172.238281 125.230469 171.847656 125.746094 171.46875 126.269531 C 171.089844 126.792969 170.722656 127.324219 170.367188 127.859375 C 170.277344 127.992188 170.195312 128.128906 170.109375 128.261719 L 169.859375 128.667969 C 169.695312 128.941406 169.535156 129.214844 169.375 129.488281 C 168.738281 130.585938 168.148438 131.707031 167.609375 132.839844 L 167.40625 133.265625 C 167.34375 133.410156 167.28125 133.550781 167.21875 133.695312 C 167.097656 133.980469 166.980469 134.269531 166.863281 134.558594 C 166.632812 135.136719 166.410156 135.714844 166.203125 136.300781 C 165.996094 136.882812 165.804688 137.46875 165.621094 138.058594 C 165.53125 138.347656 165.445312 138.644531 165.359375 138.941406 C 165.320312 139.085938 165.277344 139.234375 165.238281 139.382812 L 165.128906 139.828125 C 164.84375 141.015625 164.609375 142.210938 164.429688 143.40625 C 164.339844 144.007812 164.265625 144.605469 164.203125 145.203125 C 164.171875 145.5 164.144531 145.800781 164.117188 146.101562 C 164.097656 146.398438 164.082031 146.699219 164.070312 147.003906 C 164.019531 148.203125 164.027344 149.402344 164.085938 150.59375 C 164.125 151.316406 164.171875 152.027344 164.230469 152.722656 C 164.257812 153.066406 164.289062 153.410156 164.324219 153.746094 C 164.332031 153.832031 164.339844 153.914062 164.347656 153.996094 C 164.359375 154.082031 164.367188 154.167969 164.378906 154.25 C 164.398438 154.414062 164.421875 154.582031 164.441406 154.746094 C 164.617188 156.058594 164.832031 157.28125 165.09375 158.386719 C 165.617188 160.597656 166.320312 162.332031 167.234375 163.332031 C 167.234375 163.332031 166.972656 163.21875 166.492188 162.796875 C 166.015625 162.375 165.320312 161.644531 164.464844 160.394531 C 163.605469 159.144531 162.582031 157.375 161.460938 154.863281 C 161.179688 154.234375 160.894531 153.558594 160.605469 152.832031 C 160.316406 152.105469 160.011719 151.328125 159.730469 150.5 C 159.152344 148.839844 158.570312 146.957031 157.988281 144.820312 C 152.078125 154.324219 147.253906 163.964844 143.296875 173.402344 C 139.332031 182.839844 136.230469 192.085938 133.753906 200.886719 C 133.546875 201.625 133.355469 202.371094 133.183594 203.117188 C 133.015625 203.863281 132.855469 204.613281 132.742188 205.363281 C 132.5 206.871094 132.335938 208.382812 132.25 209.894531 C 132.207031 210.652344 132.183594 211.410156 132.179688 212.164062 C 132.175781 212.542969 132.179688 212.921875 132.1875 213.300781 C 132.191406 213.488281 132.195312 213.675781 132.207031 213.863281 L 132.238281 214.429688 C 132.328125 215.941406 132.5 217.441406 132.75 218.933594 C 132.945312 220.101562 133.160156 221.238281 133.394531 222.316406 C 133.511719 222.855469 133.632812 223.382812 133.757812 223.886719 C 133.886719 224.394531 134.027344 224.886719 134.167969 225.351562 C 134.730469 227.222656 135.371094 228.75 136.078125 229.710938 C 136.078125 229.710938 135.300781 228.804688 134.050781 227.082031 C 133.425781 226.21875 132.679688 225.15625 131.855469 223.898438 C 131.652344 223.585938 131.441406 223.257812 131.226562 222.917969 C 131.011719 222.582031 130.796875 222.230469 130.578125 221.871094 C 130.140625 221.148438 129.6875 220.375 129.222656 219.5625 C 128.730469 221.859375 128.324219 224.113281 127.929688 226.316406 C 127.734375 227.414062 127.542969 228.5 127.359375 229.570312 C 127.269531 230.109375 127.179688 230.640625 127.089844 231.167969 C 127.007812 231.699219 126.929688 232.222656 126.847656 232.746094 C 126.535156 234.835938 126.242188 236.867188 125.972656 238.832031 C 125.90625 239.324219 125.839844 239.8125 125.773438 240.296875 C 125.753906 240.417969 125.738281 240.535156 125.722656 240.660156 C 125.710938 240.777344 125.695312 240.898438 125.679688 241.019531 C 125.652344 241.257812 125.625 241.5 125.59375 241.738281 C 125.484375 242.691406 125.375 243.628906 125.273438 244.546875 C 125.066406 246.386719 124.882812 248.160156 124.710938 249.863281 C 124.691406 250.074219 124.667969 250.285156 124.648438 250.496094 C 124.628906 250.707031 124.613281 250.914062 124.59375 251.125 C 124.5625 251.539062 124.527344 251.953125 124.492188 252.359375 C 124.429688 253.175781 124.367188 253.972656 124.304688 254.75 C 124.1875 256.308594 124.085938 257.789062 123.992188 259.191406 C 123.972656 259.542969 123.949219 259.886719 123.929688 260.230469 C 123.90625 260.570312 123.886719 260.90625 123.871094 261.234375 C 123.839844 261.898438 123.8125 262.539062 123.785156 263.160156 C 123.78125 263.265625 123.761719 263.371094 123.726562 263.472656 L 122.234375 267.976562 L 121.484375 270.230469 L 121.300781 270.792969 L 121.121094 271.355469 L 120.761719 272.484375 L 119.324219 277.003906 L 118.609375 279.261719 L 118.25 280.390625 L 118.070312 280.957031 L 117.898438 281.519531 L 116.363281 286.574219 L 116.449219 286.605469 C 116.25 287.253906 116.050781 287.902344 115.847656 288.554688 C 115.191406 290.703125 114.5625 292.832031 113.964844 294.933594 C 113.8125 295.460938 113.667969 295.984375 113.519531 296.503906 C 113.378906 297.027344 113.242188 297.546875 113.101562 298.066406 C 112.828125 299.105469 112.558594 300.136719 112.296875 301.160156 C 112.085938 301.988281 111.882812 302.808594 111.679688 303.625 L 105.894531 323.71875 C 105.765625 324.164062 106.433594 324.441406 106.742188 324.066406 C 110.277344 319.820312 117.628906 314.484375 119.707031 313.011719 C 119.949219 312.839844 119.894531 312.503906 119.609375 312.394531 C 117.675781 311.640625 116.152344 310.375 114.984375 309.027344 C 117.105469 301.871094 119.21875 294.976562 121.316406 288.335938 L 121.371094 288.355469 L 122.835938 283.65625 C 123.199219 282.472656 123.589844 281.292969 123.972656 280.113281 L 125.125 276.574219 L 126.28125 273.035156 C 126.46875 272.445312 126.675781 271.859375 126.871094 271.269531 L 127.472656 269.507812 L 128.671875 265.980469 L 129.269531 264.214844 L 129.570312 263.332031 L 129.722656 262.890625 L 129.875 262.453125 L 132.367188 255.421875 L 132.992188 253.664062 L 133.640625 251.910156 L 134.933594 248.40625 L 136.230469 244.90625 C 136.335938 244.613281 136.449219 244.324219 136.5625 244.03125 L 137.570312 241.417969 L 138.917969 237.925781 L 139.589844 236.179688 C 139.820312 235.601562 140.054688 235.023438 140.289062 234.445312 L 143.089844 227.496094 L 145.996094 220.578125 C 149.933594 211.378906 154.125 202.253906 158.648438 193.246094 C 159.753906 190.988281 160.945312 188.757812 162.109375 186.515625 L 162.980469 184.835938 L 163.089844 184.625 L 163.203125 184.417969 L 163.429688 184 L 163.882812 183.167969 L 165.699219 179.832031 L 166.152344 179 C 166.304688 178.722656 166.453125 178.441406 166.613281 178.167969 L 167.554688 176.515625 L 169.433594 173.207031 L 169.671875 172.792969 L 169.789062 172.585938 L 169.910156 172.382812 L 170.398438 171.5625 L 171.371094 169.921875 L 172.835938 167.460938 L 173.078125 167.050781 C 173.160156 166.917969 173.246094 166.78125 173.332031 166.644531 L 175.351562 163.398438 L 176.363281 161.773438 C 176.707031 161.234375 177.058594 160.699219 177.410156 160.164062 L 179.765625 156.542969 L 180.035156 156.148438 L 181.664062 153.757812 L 182.75 152.171875 L 183.023438 151.773438 C 183.113281 151.640625 183.210938 151.511719 183.300781 151.378906 L 183.863281 150.59375 L 186.113281 147.449219 C 186.207031 147.316406 186.300781 147.183594 186.394531 147.058594 L 186.6875 146.667969 L 187.269531 145.894531 L 188.433594 144.339844 L 189.597656 142.789062 L 190.800781 141.257812 L 192.007812 139.726562 L 192.609375 138.964844 C 192.710938 138.835938 192.808594 138.707031 192.910156 138.582031 L 193.222656 138.207031 L 195.71875 135.191406 L 196.03125 134.8125 C 196.132812 134.6875 196.242188 134.566406 196.351562 134.441406 L 196.996094 133.699219 L 198.285156 132.21875 L 198.929688 131.476562 L 199.25 131.109375 C 199.363281 130.984375 199.472656 130.863281 199.585938 130.742188 L 200.917969 129.285156 C 204.476562 125.40625 208.226562 121.640625 212.226562 118.058594 L 211.964844 118.296875 C 211.875 118.375 211.789062 118.457031 211.707031 118.539062 L 211.195312 119.03125 L 209.15625 120.992188 L 208.898438 121.238281 L 208.648438 121.488281 L 208.15625 121.988281 L 206.183594 123.996094 L 205.695312 124.5 L 205.214844 125.007812 L 204.261719 126.035156 L 203.3125 127.058594 L 202.835938 127.566406 C 202.753906 127.652344 202.675781 127.738281 202.597656 127.828125 L 202.367188 128.085938 L 200.523438 130.171875 L 199.605469 131.214844 C 199.304688 131.566406 199.011719 131.921875 198.710938 132.273438 L 196.9375 134.394531 C 192.242188 140.078125 187.921875 145.960938 183.890625 151.96875 C 179.851562 157.980469 176.101562 164.117188 172.5625 170.328125 L 171.234375 172.664062 L 170.902344 173.246094 L 170.585938 173.832031 L 169.945312 175.007812 L 168.667969 177.355469 L 168.027344 178.53125 L 167.710938 179.117188 L 167.402344 179.710938 L 164.941406 184.445312 L 164.632812 185.039062 L 164.480469 185.332031 L 164.332031 185.632812 L 163.738281 186.824219 L 161.371094 191.589844 C 161.273438 191.789062 161.179688 191.988281 161.085938 192.1875 L 160.796875 192.789062 L 160.230469 193.988281 C 159.472656 195.585938 158.707031 197.183594 157.957031 198.785156 L 155.765625 203.613281 L 155.214844 204.820312 C 155.035156 205.222656 154.847656 205.621094 154.675781 206.027344 L 153.621094 208.453125 L 152.570312 210.878906 L 151.78125 212.699219 L 151.648438 213 L 151.519531 213.304688 L 149.496094 218.183594 L 148.484375 220.621094 L 147.507812 223.070312 L 145.5625 227.96875 L 145.320312 228.582031 C 145.238281 228.785156 145.164062 228.988281 145.085938 229.195312 L 143.679688 232.886719 L 142.746094 235.34375 C 142.4375 236.164062 142.117188 236.984375 141.824219 237.808594 L 139.128906 245.214844 C 138.976562 245.628906 138.835938 246.042969 138.691406 246.453125 L 138.261719 247.691406 L 136.539062 252.652344 L 136.105469 253.890625 L 135.890625 254.511719 L 135.683594 255.132812 L 134.855469 257.621094 L 133.199219 262.59375 L 132.789062 263.835938 L 132.390625 265.082031 L 131.59375 267.578125 C 131.257812 268.640625 132.523438 269.53125 133.445312 268.886719 C 134.859375 267.902344 136.253906 266.914062 137.621094 265.9375 C 138.3125 265.449219 139 264.960938 139.683594 264.476562 C 140.363281 263.992188 141.039062 263.507812 141.710938 263.027344 C 143.054688 262.0625 144.375 261.097656 145.675781 260.140625 C 146.320312 259.664062 146.964844 259.183594 147.605469 258.710938 C 148.25 258.238281 148.890625 257.765625 149.53125 257.292969 C 150.800781 256.351562 152.050781 255.414062 153.28125 254.480469 C 153.894531 254.011719 154.503906 253.546875 155.109375 253.082031 C 155.714844 252.617188 156.304688 252.148438 156.910156 251.691406 C 159.316406 249.851562 161.640625 248.027344 163.878906 246.214844 C 172.90625 239.003906 180.835938 232.117188 187.824219 225.523438 C 185.640625 225.839844 183.644531 226.09375 181.828125 226.296875 C 180.019531 226.5 178.394531 226.652344 176.933594 226.757812 C 174.007812 226.964844 171.742188 226.980469 170.023438 226.898438 C 168.304688 226.820312 167.136719 226.644531 166.398438 226.488281 C 165.65625 226.332031 165.347656 226.195312 165.347656 226.195312 C 168.714844 227.097656 172.480469 226.6875 176.238281 225.59375 C 176.710938 225.457031 177.179688 225.3125 177.644531 225.15625 C 177.878906 225.078125 178.117188 224.996094 178.347656 224.914062 C 178.585938 224.832031 178.820312 224.746094 179.058594 224.664062 C 179.996094 224.320312 180.933594 223.945312 181.859375 223.542969 C 183.703125 222.746094 185.5 221.847656 187.195312 220.925781 C 187.621094 220.695312 188.042969 220.464844 188.460938 220.238281 C 188.878906 220.011719 189.289062 219.78125 189.691406 219.550781 C 190.492188 219.09375 191.265625 218.636719 192.003906 218.191406 C 192.738281 217.746094 193.4375 217.308594 194.09375 216.886719 C 194.75 216.464844 195.367188 216.070312 195.945312 215.703125 C 198.238281 214.226562 199.746094 213.144531 200.085938 212.96875 C 200.121094 212.949219 200.167969 212.957031 200.199219 212.984375 C 200.242188 213.023438 200.304688 213.023438 200.339844 212.984375 C 206.277344 206.644531 211.34375 200.578125 215.695312 194.753906 C 220.046875 188.921875 223.683594 183.328125 226.777344 177.921875 C 226.972656 177.582031 227.160156 177.242188 227.347656 176.902344 C 227.539062 176.570312 227.726562 176.238281 227.914062 175.90625 C 228.289062 175.242188 228.648438 174.574219 229 173.902344 C 229.089844 173.734375 229.175781 173.566406 229.261719 173.398438 L 229.390625 173.148438 L 229.523438 172.902344 C 229.699219 172.578125 229.871094 172.25 230.042969 171.921875 C 230.386719 171.265625 230.714844 170.609375 231.039062 169.945312 C 231.117188 169.78125 231.199219 169.617188 231.277344 169.449219 C 231.359375 169.289062 231.441406 169.128906 231.523438 168.96875 C 231.683594 168.648438 231.839844 168.324219 231.996094 168 C 232.308594 167.355469 232.613281 166.703125 232.90625 166.050781 C 232.980469 165.886719 233.054688 165.730469 233.128906 165.570312 C 233.203125 165.414062 233.277344 165.253906 233.351562 165.097656 C 233.5 164.777344 233.644531 164.460938 233.789062 164.140625 C 233.929688 163.820312 234.070312 163.5 234.210938 163.179688 C 234.28125 163.019531 234.351562 162.859375 234.417969 162.695312 C 234.488281 162.535156 234.554688 162.371094 234.625 162.214844 C 236.828125 157.152344 238.675781 152.222656 240.371094 147.390625 C 239.648438 147.460938 238.945312 147.53125 238.257812 147.597656 C 237.558594 147.6875 236.882812 147.777344 236.21875 147.859375 C 235.882812 147.902344 235.550781 147.945312 235.21875 147.984375 C 235.054688 148.007812 234.890625 148.027344 234.726562 148.046875 C 234.644531 148.058594 234.566406 148.066406 234.484375 148.078125 C 234.402344 148.089844 234.320312 148.101562 234.242188 148.113281 C 233.59375 148.214844 232.960938 148.308594 232.34375 148.402344 C 231.714844 148.496094 231.105469 148.585938 230.511719 148.675781 C 230.4375 148.683594 230.363281 148.695312 230.289062 148.707031 C 230.214844 148.722656 230.140625 148.734375 230.066406 148.746094 C 229.917969 148.769531 229.773438 148.796875 229.628906 148.820312 C 229.335938 148.871094 229.046875 148.917969 228.761719 148.96875 C 228.191406 149.0625 227.628906 149.15625 227.085938 149.246094 C 226.8125 149.292969 226.539062 149.335938 226.273438 149.378906 C 226.136719 149.402344 226.003906 149.421875 225.875 149.445312 C 225.742188 149.46875 225.609375 149.492188 225.480469 149.515625 C 224.445312 149.703125 223.453125 149.878906 222.511719 150.035156 C 222.039062 150.117188 221.578125 150.195312 221.132812 150.265625 C 220.90625 150.300781 220.691406 150.347656 220.476562 150.382812 C 220.257812 150.421875 220.046875 150.457031 219.839844 150.496094 C 219 150.644531 218.207031 150.777344 217.464844 150.894531 C 217.089844 150.949219 216.730469 151.003906 216.378906 151.0625 C 216.203125 151.085938 216.03125 151.113281 215.863281 151.136719 C 215.695312 151.15625 215.527344 151.183594 215.367188 151.207031 C 212.789062 151.613281 210.9375 151.789062 209.742188 151.851562 C 209.589844 151.859375 209.453125 151.867188 209.320312 151.871094 C 209.195312 151.878906 209.074219 151.882812 208.96875 151.886719 C 208.75 151.894531 208.574219 151.898438 208.429688 151.898438 C 208.148438 151.898438 208.015625 151.886719 208.015625 151.886719 C 208.25 151.855469 208.488281 151.820312 208.730469 151.78125 C 208.851562 151.761719 208.972656 151.738281 209.097656 151.714844 C 209.21875 151.691406 209.34375 151.667969 209.46875 151.644531 C 209.972656 151.550781 210.484375 151.429688 211.007812 151.292969 C 212.054688 151.023438 213.136719 150.671875 214.246094 150.261719 C 214.382812 150.210938 214.527344 150.160156 214.667969 150.109375 C 214.808594 150.058594 214.953125 150.007812 215.09375 149.957031 C 215.378906 149.851562 215.664062 149.742188 215.949219 149.632812 C 216.523438 149.410156 217.105469 149.171875 217.6875 148.925781 C 218.84375 148.417969 220.050781 147.917969 221.246094 147.367188 C 221.546875 147.230469 221.84375 147.089844 222.144531 146.949219 C 222.292969 146.878906 222.445312 146.808594 222.59375 146.738281 L 222.816406 146.628906 L 223.042969 146.527344 C 223.652344 146.253906 224.257812 145.972656 224.863281 145.6875 C 225.160156 145.542969 225.460938 145.398438 225.761719 145.253906 L 226.210938 145.039062 L 226.433594 144.925781 C 226.511719 144.890625 226.585938 144.859375 226.664062 144.824219 C 227.265625 144.546875 227.867188 144.265625 228.460938 143.980469 C 228.757812 143.839844 229.054688 143.695312 229.347656 143.554688 C 229.496094 143.484375 229.644531 143.410156 229.789062 143.339844 C 229.9375 143.265625 230.085938 143.203125 230.234375 143.136719 C 230.824219 142.867188 231.40625 142.597656 231.980469 142.324219 C 232.265625 142.1875 232.550781 142.054688 232.832031 141.921875 L 233.042969 141.816406 L 233.253906 141.722656 C 233.398438 141.660156 233.539062 141.597656 233.679688 141.535156 C 234.242188 141.28125 234.792969 141.03125 235.335938 140.785156 C 236.046875 140.441406 236.75 140.113281 237.410156 139.726562 C 237.738281 139.53125 238.0625 139.332031 238.375 139.121094 L 238.613281 138.960938 L 238.847656 138.808594 C 239 138.703125 239.15625 138.597656 239.308594 138.488281 C 239.609375 138.273438 239.90625 138.046875 240.191406 137.808594 C 240.335938 137.691406 240.476562 137.570312 240.617188 137.449219 L 240.824219 137.261719 L 241.035156 137.082031 C 241.582031 136.601562 242.101562 136.078125 242.589844 135.519531 C 244.554688 133.332031 246.082031 130.707031 247.230469 127.628906 C 247.460938 127.019531 247.6875 126.414062 247.914062 125.816406 C 248.148438 125.21875 248.382812 124.625 248.613281 124.035156 C 248.730469 123.738281 248.847656 123.441406 248.964844 123.144531 C 249.089844 122.851562 249.210938 122.5625 249.328125 122.273438 C 249.570312 121.691406 249.8125 121.097656 250.058594 120.519531 C 250.3125 119.941406 250.566406 119.371094 250.816406 118.804688 C 250.878906 118.660156 250.941406 118.519531 251.003906 118.375 C 251.066406 118.230469 251.132812 118.085938 251.199219 117.949219 C 251.328125 117.671875 251.457031 117.390625 251.585938 117.113281 C 251.71875 116.832031 251.851562 116.550781 251.980469 116.277344 C 252.046875 116.136719 252.113281 115.996094 252.179688 115.855469 L 252.277344 115.644531 L 252.378906 115.441406 C 252.65625 114.890625 252.925781 114.347656 253.195312 113.808594 C 253.46875 113.257812 253.75 112.738281 254.03125 112.207031 C 254.171875 111.945312 254.316406 111.679688 254.457031 111.417969 C 254.527344 111.285156 254.597656 111.15625 254.671875 111.023438 C 254.742188 110.890625 254.8125 110.765625 254.886719 110.636719 C 255.175781 110.125 255.46875 109.617188 255.761719 109.105469 C 255.835938 108.980469 255.910156 108.851562 255.984375 108.726562 C 256.058594 108.601562 256.132812 108.480469 256.207031 108.359375 C 256.359375 108.109375 256.511719 107.863281 256.660156 107.617188 C 256.8125 107.371094 256.960938 107.128906 257.113281 106.886719 C 257.1875 106.765625 257.261719 106.640625 257.339844 106.523438 C 257.417969 106.402344 257.496094 106.285156 257.570312 106.167969 C 257.878906 105.695312 258.191406 105.226562 258.5 104.761719 C 258.652344 104.527344 258.8125 104.304688 258.96875 104.078125 C 259.128906 103.851562 259.285156 103.628906 259.441406 103.40625 C 259.601562 103.1875 259.757812 102.964844 259.914062 102.742188 C 260.074219 102.523438 260.234375 102.3125 260.394531 102.097656 C 260.714844 101.675781 261.035156 101.253906 261.355469 100.835938 C 261.675781 100.429688 262 100.03125 262.324219 99.636719 C 262.484375 99.4375 262.648438 99.242188 262.804688 99.050781 C 262.96875 98.859375 263.132812 98.671875 263.292969 98.488281 C 263.617188 98.113281 263.941406 97.746094 264.261719 97.390625 C 264.914062 96.6875 265.546875 96.003906 266.1875 95.378906 C 266.347656 95.222656 266.503906 95.066406 266.660156 94.910156 C 266.816406 94.757812 266.972656 94.605469 267.132812 94.460938 C 267.449219 94.167969 267.761719 93.882812 268.066406 93.605469 C 270.464844 91.414062 272.441406 89.878906 273.636719 88.976562 C 273.980469 88.714844 274.101562 88.363281 274.015625 88.007812 " fill-opacity="1" fill-rule="nonzero"/></svg>